<svg width="74" height="55" viewBox="0 0 74 55" fill="none" xmlns="http://www.w3.org/2000/svg">
<circle cx="47" cy="27" r="27" fill="#FFE4E4"/>
<path d="M36.2709 47.8054V43.5382C36.2709 41.2748 35.3718 39.1041 33.7713 37.5036C32.1708 35.9031 30 35.0039 27.7366 35.0039H10.6679C8.40444 35.0039 6.2337 35.9031 4.6332 37.5036C3.0327 39.1041 2.13354 41.2748 2.13354 43.5382V47.8054" stroke="#19191D" stroke-width="2" stroke-linecap="round" stroke-linejoin="round"/>
<path d="M19.2023 26.4696C23.9157 26.4696 27.7367 22.6486 27.7367 17.9352C27.7367 13.2218 23.9157 9.40088 19.2023 9.40088C14.4889 9.40088 10.668 13.2218 10.668 17.9352C10.668 22.6486 14.4889 26.4696 19.2023 26.4696Z" stroke="#19191D" stroke-width="2" stroke-linecap="round" stroke-linejoin="round"/>
<path d="M49.0725 47.8054V43.5382C49.0711 41.6473 48.4417 39.8104 47.2832 38.3159C46.1247 36.8214 44.5026 35.754 42.6718 35.2812" stroke="#19191D" stroke-width="2" stroke-linecap="round" stroke-linejoin="round"/>
<path d="M34.1373 9.67822C35.9731 10.1483 37.6002 11.2159 38.7622 12.7128C39.9241 14.2098 40.5548 16.0509 40.5548 17.9459C40.5548 19.8409 39.9241 21.6819 38.7622 23.1789C37.6002 24.6758 35.9731 25.7435 34.1373 26.2135" stroke="#19191D" stroke-width="2" stroke-linecap="round" stroke-linejoin="round"/>
</svg>
