<svg width="166" height="41" viewBox="0 0 166 41" fill="none" xmlns="http://www.w3.org/2000/svg">
<path d="M40.9389 33V29.8058L53.6413 11.9826H40.9141V7.54545H60.4027V10.7397L47.6879 28.5629H60.4276V33H40.9389ZM73.3071 33V7.54545H90.4591V11.9826H78.6888V18.0479H89.5766V22.4851H78.6888V28.5629H90.5088V33H73.3071ZM102.518 11.9826V7.54545H123.424V11.9826H115.631V33H110.311V11.9826H102.518ZM136.894 33H131.127L139.914 7.54545H146.849L155.624 33H149.857L143.481 13.3622H143.282L136.894 33ZM136.533 22.9947H150.155V27.1957H136.533V22.9947Z" fill="#1D1D21"/>
<path d="M0 21.8667L20.6883 0L16.4805 18.8296H27L5.96104 41L10.5195 21.8667H0Z" fill="#3F53D8"/>
</svg>
