<svg width="285" height="322" viewBox="0 0 285 322" fill="none" xmlns="http://www.w3.org/2000/svg">
<rect width="285" height="322" rx="20" fill="#FBFBFB"/>
<path d="M64.3076 118.038H256.5" stroke="#E2E2E2"/>
<path d="M64.3076 196H256.5" stroke="#E2E2E2"/>
<path d="M64.3076 277.615H256.5" stroke="#E2E2E2"/>
<path d="M169.539 150.077C169.539 147.868 171.329 146.077 173.539 146.077H197.692C199.902 146.077 201.692 147.868 201.692 150.077V277.615H169.539V150.077Z" fill="black"/>
<path d="M213.384 106.961C213.384 104.752 215.175 102.961 217.384 102.961H241.538C243.747 102.961 245.538 104.752 245.538 106.961V277.615H213.384V106.961Z" fill="#3F53D8"/>
<path d="M125.692 179.307C125.692 177.098 127.483 175.307 129.692 175.307H153.846C156.055 175.307 157.846 177.098 157.846 179.307V277.615H125.692V179.307Z" fill="#FDCA49"/>
<path d="M81.8462 218.769C81.8462 216.56 83.6371 214.769 85.8462 214.769H110C112.209 214.769 114 216.56 114 218.769V277.615H81.8462V218.769Z" fill="#E5E5E5"/>
<path d="M37.679 39.1847H35.4631C35.3778 38.7112 35.2192 38.2945 34.9872 37.9347C34.7552 37.5748 34.4711 37.2694 34.1349 37.0185C33.7988 36.7675 33.4223 36.5781 33.0057 36.4503C32.5938 36.3224 32.1558 36.2585 31.6918 36.2585C30.8537 36.2585 30.1032 36.4692 29.4403 36.8906C28.7822 37.312 28.2614 37.9299 27.8778 38.7443C27.4991 39.5587 27.3097 40.553 27.3097 41.7273C27.3097 42.911 27.4991 43.91 27.8778 44.7244C28.2614 45.5388 28.7846 46.1544 29.4474 46.571C30.1103 46.9877 30.8561 47.196 31.6847 47.196C32.1439 47.196 32.5795 47.1345 32.9915 47.0114C33.4081 46.8835 33.7846 46.6965 34.1207 46.4503C34.4569 46.2041 34.741 45.9034 34.973 45.5483C35.2098 45.1884 35.3731 44.7765 35.4631 44.3125L37.679 44.3196C37.5606 45.0346 37.331 45.6927 36.9901 46.294C36.6539 46.8906 36.2206 47.4067 35.6903 47.8423C35.1648 48.2732 34.5634 48.607 33.8864 48.8438C33.2093 49.0805 32.4706 49.1989 31.6705 49.1989C30.411 49.1989 29.2888 48.9006 28.304 48.304C27.3191 47.7027 26.5426 46.8433 25.9744 45.7259C25.411 44.6084 25.1293 43.2756 25.1293 41.7273C25.1293 40.1742 25.4134 38.8414 25.9815 37.7287C26.5497 36.6113 27.3262 35.7543 28.3111 35.1577C29.2959 34.5563 30.4157 34.2557 31.6705 34.2557C32.4422 34.2557 33.1619 34.367 33.8295 34.5895C34.5019 34.8073 35.1056 35.1293 35.6406 35.5554C36.1757 35.9768 36.6184 36.4929 36.9688 37.1037C37.3191 37.7098 37.5559 38.4034 37.679 39.1847ZM39.9346 49V38.0909H41.9871V39.8239H42.1008C42.2996 39.2367 42.65 38.7751 43.1519 38.4389C43.6585 38.098 44.2315 37.9276 44.8707 37.9276C45.0032 37.9276 45.1595 37.9323 45.3394 37.9418C45.5241 37.9512 45.6685 37.9631 45.7727 37.9773V40.0085C45.6874 39.9848 45.5359 39.9588 45.3181 39.9304C45.1003 39.8973 44.8825 39.8807 44.6647 39.8807C44.1628 39.8807 43.7154 39.9872 43.3224 40.2003C42.9341 40.4086 42.6263 40.6998 42.3991 41.0739C42.1718 41.4432 42.0582 41.8646 42.0582 42.3381V49H39.9346ZM51.7214 49.2202C50.6466 49.2202 49.721 48.9905 48.9445 48.5312C48.1727 48.0672 47.5761 47.4162 47.1547 46.5781C46.738 45.7353 46.5297 44.7481 46.5297 43.6165C46.5297 42.4991 46.738 41.5142 47.1547 40.6619C47.5761 39.8097 48.1632 39.1444 48.9161 38.6662C49.6736 38.188 50.559 37.9489 51.5723 37.9489C52.1878 37.9489 52.7844 38.0507 53.3621 38.2543C53.9397 38.4579 54.4582 38.7775 54.9175 39.2131C55.3768 39.6487 55.739 40.2145 56.0041 40.9105C56.2693 41.6018 56.4018 42.4422 56.4018 43.4318V44.1847H47.73V42.5938H54.3209C54.3209 42.035 54.2072 41.5402 53.98 41.1094C53.7527 40.6738 53.4331 40.3305 53.0212 40.0795C52.614 39.8286 52.1357 39.7031 51.5865 39.7031C50.9899 39.7031 50.4691 39.8499 50.024 40.1435C49.5837 40.4323 49.2428 40.8111 49.0013 41.2798C48.7645 41.7438 48.6462 42.2481 48.6462 42.7926V44.0355C48.6462 44.7647 48.774 45.3849 49.0297 45.8963C49.2901 46.4077 49.6523 46.7983 50.1163 47.0682C50.5804 47.3333 51.1225 47.4659 51.7428 47.4659C52.1452 47.4659 52.5122 47.4091 52.8436 47.2955C53.175 47.1771 53.4615 47.0019 53.703 46.7699C53.9445 46.5379 54.1291 46.2514 54.257 45.9105L56.2669 46.2727C56.1059 46.8646 55.8171 47.383 55.4004 47.8281C54.9885 48.2685 54.47 48.6117 53.845 48.858C53.2248 49.0994 52.5169 49.2202 51.7214 49.2202ZM61.7327 49.2415C61.0415 49.2415 60.4165 49.1136 59.8577 48.858C59.299 48.5975 58.8563 48.2211 58.5296 47.7287C58.2076 47.2363 58.0467 46.6326 58.0467 45.9176C58.0467 45.3021 58.165 44.7955 58.4018 44.3977C58.6385 44 58.9581 43.6851 59.3606 43.4531C59.763 43.2211 60.2129 43.0459 60.71 42.9276C61.2072 42.8092 61.7138 42.7192 62.2299 42.6577C62.8833 42.5819 63.4136 42.5204 63.8208 42.473C64.228 42.4209 64.5239 42.3381 64.7086 42.2244C64.8933 42.1108 64.9856 41.9261 64.9856 41.6705V41.6207C64.9856 41.0005 64.8104 40.5199 64.46 40.179C64.1144 39.8381 63.5983 39.6676 62.9117 39.6676C62.1968 39.6676 61.6333 39.8262 61.2214 40.1435C60.8142 40.456 60.5325 40.804 60.3762 41.1875L58.3805 40.733C58.6172 40.0701 58.9629 39.535 59.4174 39.1278C59.8767 38.7159 60.4046 38.4176 61.0012 38.233C61.5978 38.0436 62.2252 37.9489 62.8833 37.9489C63.3189 37.9489 63.7806 38.0009 64.2683 38.1051C64.7607 38.2045 65.22 38.3892 65.6461 38.6591C66.077 38.929 66.4297 39.3149 66.7043 39.8168C66.979 40.3139 67.1163 40.9602 67.1163 41.7557V49H65.0424V47.5085H64.9572C64.8199 47.7831 64.6139 48.053 64.3393 48.3182C64.0647 48.5833 63.7119 48.8035 63.281 48.9787C62.8502 49.1539 62.3341 49.2415 61.7327 49.2415ZM62.1944 47.5369C62.7815 47.5369 63.2834 47.4209 63.7001 47.1889C64.1215 46.9569 64.4411 46.6539 64.6589 46.2798C64.8814 45.901 64.9927 45.4962 64.9927 45.0653V43.6591C64.9169 43.7348 64.7701 43.8059 64.5523 43.8722C64.3393 43.9337 64.0954 43.9882 63.8208 44.0355C63.5462 44.0781 63.2787 44.1184 63.0183 44.1562C62.7578 44.1894 62.54 44.2178 62.3648 44.2415C61.9529 44.2936 61.5765 44.3812 61.2356 44.5043C60.8994 44.6274 60.6295 44.8049 60.4259 45.0369C60.2271 45.2642 60.1276 45.5672 60.1276 45.946C60.1276 46.4716 60.3218 46.8693 60.71 47.1392C61.0983 47.4044 61.5931 47.5369 62.1944 47.5369ZM74.8371 38.0909V39.7955H68.8783V38.0909H74.8371ZM70.4763 35.4773H72.5999V45.7969C72.5999 46.2088 72.6614 46.5189 72.7845 46.7273C72.9076 46.9309 73.0662 47.0705 73.2604 47.1463C73.4592 47.2173 73.6747 47.2528 73.9067 47.2528C74.0771 47.2528 74.2263 47.241 74.3541 47.2173C74.482 47.1937 74.5814 47.1747 74.6524 47.1605L75.0359 48.9148C74.9128 48.9621 74.7376 49.0095 74.5104 49.0568C74.2831 49.1089 73.999 49.1373 73.6581 49.142C73.0994 49.1515 72.5786 49.0521 72.0956 48.8438C71.6126 48.6354 71.222 48.3134 70.9237 47.8778C70.6254 47.4422 70.4763 46.8954 70.4763 46.2372V35.4773ZM81.5707 49.2202C80.4959 49.2202 79.5702 48.9905 78.7937 48.5312C78.0219 48.0672 77.4253 47.4162 77.0039 46.5781C76.5872 45.7353 76.3789 44.7481 76.3789 43.6165C76.3789 42.4991 76.5872 41.5142 77.0039 40.6619C77.4253 39.8097 78.0124 39.1444 78.7653 38.6662C79.5228 38.188 80.4083 37.9489 81.4215 37.9489C82.0371 37.9489 82.6336 38.0507 83.2113 38.2543C83.7889 38.4579 84.3074 38.7775 84.7667 39.2131C85.226 39.6487 85.5882 40.2145 85.8533 40.9105C86.1185 41.6018 86.2511 42.4422 86.2511 43.4318V44.1847H77.5792V42.5938H84.1701C84.1701 42.035 84.0565 41.5402 83.8292 41.1094C83.6019 40.6738 83.2823 40.3305 82.8704 40.0795C82.4632 39.8286 81.985 39.7031 81.4357 39.7031C80.8391 39.7031 80.3183 39.8499 79.8732 40.1435C79.4329 40.4323 79.092 40.8111 78.8505 41.2798C78.6138 41.7438 78.4954 42.2481 78.4954 42.7926V44.0355C78.4954 44.7647 78.6232 45.3849 78.8789 45.8963C79.1393 46.4077 79.5015 46.7983 79.9656 47.0682C80.4296 47.3333 80.9717 47.4659 81.592 47.4659C81.9944 47.4659 82.3614 47.4091 82.6928 47.2955C83.0243 47.1771 83.3107 47.0019 83.5522 46.7699C83.7937 46.5379 83.9783 46.2514 84.1062 45.9105L86.1161 46.2727C85.9551 46.8646 85.6663 47.383 85.2496 47.8281C84.8377 48.2685 84.3192 48.6117 83.6942 48.858C83.074 49.0994 82.3661 49.2202 81.5707 49.2202ZM96.6749 49.2415C95.9836 49.2415 95.3586 49.1136 94.7999 48.858C94.2412 48.5975 93.7985 48.2211 93.4718 47.7287C93.1498 47.2363 92.9888 46.6326 92.9888 45.9176C92.9888 45.3021 93.1072 44.7955 93.344 44.3977C93.5807 44 93.9003 43.6851 94.3028 43.4531C94.7052 43.2211 95.155 43.0459 95.6522 42.9276C96.1494 42.8092 96.656 42.7192 97.1721 42.6577C97.8255 42.5819 98.3558 42.5204 98.763 42.473C99.1702 42.4209 99.4661 42.3381 99.6508 42.2244C99.8354 42.1108 99.9278 41.9261 99.9278 41.6705V41.6207C99.9278 41.0005 99.7526 40.5199 99.4022 40.179C99.0566 39.8381 98.5405 39.6676 97.8539 39.6676C97.1389 39.6676 96.5755 39.8262 96.1636 40.1435C95.7564 40.456 95.4746 40.804 95.3184 41.1875L93.3227 40.733C93.5594 40.0701 93.905 39.535 94.3596 39.1278C94.8189 38.7159 95.3468 38.4176 95.9434 38.233C96.54 38.0436 97.1674 37.9489 97.8255 37.9489C98.2611 37.9489 98.7227 38.0009 99.2104 38.1051C99.7029 38.2045 100.162 38.3892 100.588 38.6591C101.019 38.929 101.372 39.3149 101.647 39.8168C101.921 40.3139 102.058 40.9602 102.058 41.7557V49H99.9846V47.5085H99.8994C99.762 47.7831 99.5561 48.053 99.2815 48.3182C99.0068 48.5833 98.6541 48.8035 98.2232 48.9787C97.7924 49.1539 97.2763 49.2415 96.6749 49.2415ZM97.1366 47.5369C97.7237 47.5369 98.2256 47.4209 98.6423 47.1889C99.0637 46.9569 99.3833 46.6539 99.6011 46.2798C99.8236 45.901 99.9349 45.4962 99.9349 45.0653V43.6591C99.8591 43.7348 99.7123 43.8059 99.4945 43.8722C99.2815 43.9337 99.0376 43.9882 98.763 44.0355C98.4884 44.0781 98.2209 44.1184 97.9604 44.1562C97.7 44.1894 97.4822 44.2178 97.307 44.2415C96.8951 44.2936 96.5187 44.3812 96.1778 44.5043C95.8416 44.6274 95.5717 44.8049 95.3681 45.0369C95.1692 45.2642 95.0698 45.5672 95.0698 45.946C95.0698 46.4716 95.2639 46.8693 95.6522 47.1392C96.0405 47.4044 96.5352 47.5369 97.1366 47.5369ZM111.597 44.4759V38.0909H113.728V49H111.64V47.1108H111.526C111.275 47.6932 110.873 48.1785 110.319 48.5668C109.77 48.9503 109.086 49.142 108.266 49.142C107.566 49.142 106.945 48.9882 106.406 48.6804C105.871 48.3679 105.449 47.9062 105.141 47.2955C104.838 46.6847 104.687 45.9295 104.687 45.0298V38.0909H106.811V44.7741C106.811 45.5175 107.016 46.1094 107.428 46.5497C107.84 46.9901 108.375 47.2102 109.034 47.2102C109.431 47.2102 109.827 47.1108 110.22 46.9119C110.617 46.7131 110.946 46.4124 111.207 46.0099C111.472 45.6075 111.602 45.0961 111.597 44.4759ZM121.474 38.0909V39.7955H115.515V38.0909H121.474ZM117.113 35.4773H119.237V45.7969C119.237 46.2088 119.298 46.5189 119.421 46.7273C119.544 46.9309 119.703 47.0705 119.897 47.1463C120.096 47.2173 120.311 47.2528 120.543 47.2528C120.714 47.2528 120.863 47.241 120.991 47.2173C121.119 47.1937 121.218 47.1747 121.289 47.1605L121.673 48.9148C121.55 48.9621 121.374 49.0095 121.147 49.0568C120.92 49.1089 120.636 49.1373 120.295 49.142C119.736 49.1515 119.215 49.0521 118.732 48.8438C118.249 48.6354 117.859 48.3134 117.56 47.8778C117.262 47.4422 117.113 46.8954 117.113 46.2372V35.4773ZM128.101 49.2202C127.078 49.2202 126.186 48.9858 125.423 48.517C124.661 48.0483 124.069 47.3925 123.648 46.5497C123.226 45.7069 123.016 44.7221 123.016 43.5952C123.016 42.4635 123.226 41.474 123.648 40.6264C124.069 39.7789 124.661 39.1207 125.423 38.652C126.186 38.1832 127.078 37.9489 128.101 37.9489C129.124 37.9489 130.016 38.1832 130.778 38.652C131.541 39.1207 132.133 39.7789 132.554 40.6264C132.975 41.474 133.186 42.4635 133.186 43.5952C133.186 44.7221 132.975 45.7069 132.554 46.5497C132.133 47.3925 131.541 48.0483 130.778 48.517C130.016 48.9858 129.124 49.2202 128.101 49.2202ZM128.108 47.4375C128.771 47.4375 129.32 47.2623 129.756 46.9119C130.191 46.5616 130.513 46.0952 130.722 45.5128C130.935 44.9304 131.041 44.2888 131.041 43.5881C131.041 42.892 130.935 42.2528 130.722 41.6705C130.513 41.0833 130.191 40.6122 129.756 40.2571C129.32 39.902 128.771 39.7244 128.108 39.7244C127.44 39.7244 126.886 39.902 126.446 40.2571C126.01 40.6122 125.686 41.0833 125.473 41.6705C125.265 42.2528 125.161 42.892 125.161 43.5881C125.161 44.2888 125.265 44.9304 125.473 45.5128C125.686 46.0952 126.01 46.5616 126.446 46.9119C126.886 47.2623 127.44 47.4375 128.108 47.4375ZM142.573 34.4545V49H140.449V34.4545H142.573ZM148.405 49.2415C147.713 49.2415 147.088 49.1136 146.53 48.858C145.971 48.5975 145.528 48.2211 145.201 47.7287C144.88 47.2363 144.719 46.6326 144.719 45.9176C144.719 45.3021 144.837 44.7955 145.074 44.3977C145.31 44 145.63 43.6851 146.032 43.4531C146.435 43.2211 146.885 43.0459 147.382 42.9276C147.879 42.8092 148.386 42.7192 148.902 42.6577C149.555 42.5819 150.085 42.5204 150.493 42.473C150.9 42.4209 151.196 42.3381 151.38 42.2244C151.565 42.1108 151.657 41.9261 151.657 41.6705V41.6207C151.657 41.0005 151.482 40.5199 151.132 40.179C150.786 39.8381 150.27 39.6676 149.584 39.6676C148.869 39.6676 148.305 39.8262 147.893 40.1435C147.486 40.456 147.204 40.804 147.048 41.1875L145.052 40.733C145.289 40.0701 145.635 39.535 146.089 39.1278C146.549 38.7159 147.076 38.4176 147.673 38.233C148.27 38.0436 148.897 37.9489 149.555 37.9489C149.991 37.9489 150.452 38.0009 150.94 38.1051C151.433 38.2045 151.892 38.3892 152.318 38.6591C152.749 38.929 153.102 39.3149 153.376 39.8168C153.651 40.3139 153.788 40.9602 153.788 41.7557V49H151.714V47.5085H151.629C151.492 47.7831 151.286 48.053 151.011 48.3182C150.737 48.5833 150.384 48.8035 149.953 48.9787C149.522 49.1539 149.006 49.2415 148.405 49.2415ZM148.866 47.5369C149.453 47.5369 149.955 47.4209 150.372 47.1889C150.793 46.9569 151.113 46.6539 151.331 46.2798C151.553 45.901 151.665 45.4962 151.665 45.0653V43.6591C151.589 43.7348 151.442 43.8059 151.224 43.8722C151.011 43.9337 150.767 43.9882 150.493 44.0355C150.218 44.0781 149.951 44.1184 149.69 44.1562C149.43 44.1894 149.212 44.2178 149.037 44.2415C148.625 44.2936 148.248 44.3812 147.907 44.5043C147.571 44.6274 147.301 44.8049 147.098 45.0369C146.899 45.2642 146.8 45.5672 146.8 45.946C146.8 46.4716 146.994 46.8693 147.382 47.1392C147.77 47.4044 148.265 47.5369 148.866 47.5369ZM157.368 53.0909C157.051 53.0909 156.762 53.0649 156.502 53.0128C156.241 52.9654 156.047 52.9134 155.919 52.8565L156.431 51.1165C156.819 51.2206 157.165 51.2656 157.468 51.2514C157.771 51.2372 158.038 51.1236 158.27 50.9105C158.507 50.6974 158.715 50.3494 158.895 49.8665L159.158 49.142L155.167 38.0909H157.439L160.202 46.5568H160.316L163.079 38.0909H165.358L160.863 50.456C160.654 51.0241 160.389 51.5047 160.067 51.8977C159.745 52.2955 159.362 52.5938 158.917 52.7926C158.472 52.9915 157.955 53.0909 157.368 53.0909ZM171.378 49.2202C170.355 49.2202 169.463 48.9858 168.701 48.517C167.938 48.0483 167.346 47.3925 166.925 46.5497C166.504 45.7069 166.293 44.7221 166.293 43.5952C166.293 42.4635 166.504 41.474 166.925 40.6264C167.346 39.7789 167.938 39.1207 168.701 38.652C169.463 38.1832 170.355 37.9489 171.378 37.9489C172.401 37.9489 173.293 38.1832 174.056 38.652C174.818 39.1207 175.41 39.7789 175.831 40.6264C176.253 41.474 176.463 42.4635 176.463 43.5952C176.463 44.7221 176.253 45.7069 175.831 46.5497C175.41 47.3925 174.818 48.0483 174.056 48.517C173.293 48.9858 172.401 49.2202 171.378 49.2202ZM171.385 47.4375C172.048 47.4375 172.597 47.2623 173.033 46.9119C173.469 46.5616 173.791 46.0952 173.999 45.5128C174.212 44.9304 174.319 44.2888 174.319 43.5881C174.319 42.892 174.212 42.2528 173.999 41.6705C173.791 41.0833 173.469 40.6122 173.033 40.2571C172.597 39.902 172.048 39.7244 171.385 39.7244C170.718 39.7244 170.164 39.902 169.723 40.2571C169.288 40.6122 168.963 41.0833 168.75 41.6705C168.542 42.2528 168.438 42.892 168.438 43.5881C168.438 44.2888 168.542 44.9304 168.75 45.5128C168.963 46.0952 169.288 46.5616 169.723 46.9119C170.164 47.2623 170.718 47.4375 171.385 47.4375ZM185.544 44.4759V38.0909H187.675V49H185.587V47.1108H185.473C185.222 47.6932 184.82 48.1785 184.266 48.5668C183.717 48.9503 183.032 49.142 182.213 49.142C181.513 49.142 180.892 48.9882 180.353 48.6804C179.818 48.3679 179.396 47.9062 179.088 47.2955C178.785 46.6847 178.634 45.9295 178.634 45.0298V38.0909H180.757V44.7741C180.757 45.5175 180.963 46.1094 181.375 46.5497C181.787 46.9901 182.322 47.2102 182.98 47.2102C183.378 47.2102 183.773 47.1108 184.166 46.9119C184.564 46.7131 184.893 46.4124 185.154 46.0099C185.419 45.6075 185.549 45.0961 185.544 44.4759ZM195.421 38.0909V39.7955H189.462V38.0909H195.421ZM191.06 35.4773H193.183V45.7969C193.183 46.2088 193.245 46.5189 193.368 46.7273C193.491 46.9309 193.65 47.0705 193.844 47.1463C194.043 47.2173 194.258 47.2528 194.49 47.2528C194.661 47.2528 194.81 47.241 194.938 47.2173C195.066 47.1937 195.165 47.1747 195.236 47.1605L195.62 48.9148C195.496 48.9621 195.321 49.0095 195.094 49.0568C194.867 49.1089 194.583 49.1373 194.242 49.142C193.683 49.1515 193.162 49.0521 192.679 48.8438C192.196 48.6354 191.806 48.3134 191.507 47.8778C191.209 47.4422 191.06 46.8954 191.06 46.2372V35.4773Z" fill="#060815"/>
<path d="M25.1705 123.159C24.3902 123.159 23.6932 123.025 23.0795 122.756C22.4697 122.487 21.9867 122.114 21.6307 121.636C21.2784 121.155 21.089 120.598 21.0625 119.966H22.8466C22.8693 120.311 22.9848 120.61 23.1932 120.864C23.4053 121.114 23.6818 121.307 24.0227 121.443C24.3636 121.58 24.7424 121.648 25.1591 121.648C25.6174 121.648 26.0227 121.568 26.375 121.409C26.7311 121.25 27.0095 121.028 27.2102 120.744C27.411 120.456 27.5114 120.125 27.5114 119.75C27.5114 119.36 27.411 119.017 27.2102 118.722C27.0133 118.422 26.7235 118.187 26.3409 118.017C25.9621 117.847 25.5038 117.761 24.9659 117.761H23.983V116.33H24.9659C25.3977 116.33 25.7765 116.252 26.1023 116.097C26.4318 115.941 26.6894 115.725 26.875 115.449C27.0606 115.169 27.1534 114.841 27.1534 114.466C27.1534 114.106 27.072 113.794 26.9091 113.528C26.75 113.259 26.5227 113.049 26.2273 112.898C25.9356 112.746 25.5909 112.67 25.1932 112.67C24.8144 112.67 24.4602 112.741 24.1307 112.881C23.8049 113.017 23.5398 113.214 23.3352 113.472C23.1307 113.725 23.0208 114.03 23.0057 114.386H21.3068C21.3258 113.758 21.5114 113.205 21.8636 112.727C22.2197 112.25 22.6894 111.877 23.2727 111.608C23.8561 111.339 24.5038 111.205 25.2159 111.205C25.9621 111.205 26.6061 111.35 27.1477 111.642C27.6932 111.93 28.1136 112.314 28.4091 112.795C28.7083 113.277 28.8561 113.803 28.8523 114.375C28.8561 115.027 28.6742 115.58 28.3068 116.034C27.9432 116.489 27.4583 116.794 26.8523 116.949V117.04C27.625 117.157 28.2235 117.464 28.6477 117.96C29.0758 118.456 29.2879 119.072 29.2841 119.807C29.2879 120.447 29.1098 121.021 28.75 121.528C28.3939 122.036 27.9072 122.436 27.2898 122.727C26.6723 123.015 25.9659 123.159 25.1705 123.159ZM35.483 123.193C34.5852 123.189 33.8182 122.953 33.1818 122.483C32.5455 122.013 32.0587 121.33 31.7216 120.432C31.3845 119.534 31.2159 118.453 31.2159 117.188C31.2159 115.926 31.3845 114.848 31.7216 113.955C32.0625 113.061 32.5511 112.379 33.1875 111.909C33.8277 111.439 34.5928 111.205 35.483 111.205C36.3731 111.205 37.1364 111.441 37.7727 111.915C38.4091 112.384 38.8958 113.066 39.233 113.96C39.5739 114.85 39.7443 115.926 39.7443 117.188C39.7443 118.456 39.5758 119.54 39.2386 120.438C38.9015 121.331 38.4148 122.015 37.7784 122.489C37.142 122.958 36.3769 123.193 35.483 123.193ZM35.483 121.676C36.2708 121.676 36.8864 121.292 37.3295 120.523C37.7765 119.754 38 118.642 38 117.188C38 116.222 37.8977 115.405 37.6932 114.739C37.4924 114.068 37.2027 113.561 36.8239 113.216C36.4489 112.867 36.0019 112.693 35.483 112.693C34.6989 112.693 34.0833 113.08 33.6364 113.852C33.1894 114.625 32.964 115.737 32.9602 117.188C32.9602 118.157 33.0606 118.977 33.2614 119.648C33.4659 120.314 33.7557 120.82 34.1307 121.165C34.5057 121.506 34.9564 121.676 35.483 121.676ZM41.919 123V111.364H43.6747V116.92H43.8168L48.6974 111.364H50.9077L46.2145 116.602L50.9247 123H48.8111L45.0497 117.801L43.6747 119.381V123H41.919Z" fill="#1D1D21"/>
<path d="M21.1193 201V199.727L25.0568 195.648C25.4773 195.205 25.8239 194.816 26.0966 194.483C26.3731 194.146 26.5795 193.826 26.7159 193.523C26.8523 193.22 26.9205 192.898 26.9205 192.557C26.9205 192.17 26.8295 191.837 26.6477 191.557C26.4659 191.273 26.2178 191.055 25.9034 190.903C25.589 190.748 25.2348 190.67 24.8409 190.67C24.4242 190.67 24.0606 190.756 23.75 190.926C23.4394 191.097 23.2008 191.337 23.0341 191.648C22.8674 191.958 22.7841 192.322 22.7841 192.739H21.108C21.108 192.03 21.2708 191.411 21.5966 190.881C21.9223 190.35 22.3693 189.939 22.9375 189.648C23.5057 189.352 24.1515 189.205 24.875 189.205C25.6061 189.205 26.25 189.35 26.8068 189.642C27.3674 189.93 27.8049 190.324 28.1193 190.824C28.4337 191.32 28.5909 191.881 28.5909 192.506C28.5909 192.938 28.5095 193.36 28.3466 193.773C28.1875 194.186 27.9091 194.646 27.5114 195.153C27.1136 195.657 26.5606 196.269 25.8523 196.989L23.5398 199.409V199.494H28.7784V201H21.1193ZM34.983 201.193C34.0852 201.189 33.3182 200.953 32.6818 200.483C32.0455 200.013 31.5587 199.33 31.2216 198.432C30.8845 197.534 30.7159 196.453 30.7159 195.188C30.7159 193.926 30.8845 192.848 31.2216 191.955C31.5625 191.061 32.0511 190.379 32.6875 189.909C33.3277 189.439 34.0928 189.205 34.983 189.205C35.8731 189.205 36.6364 189.441 37.2727 189.915C37.9091 190.384 38.3958 191.066 38.733 191.96C39.0739 192.85 39.2443 193.926 39.2443 195.188C39.2443 196.456 39.0758 197.54 38.7386 198.438C38.4015 199.331 37.9148 200.015 37.2784 200.489C36.642 200.958 35.8769 201.193 34.983 201.193ZM34.983 199.676C35.7708 199.676 36.3864 199.292 36.8295 198.523C37.2765 197.754 37.5 196.642 37.5 195.188C37.5 194.222 37.3977 193.405 37.1932 192.739C36.9924 192.068 36.7027 191.561 36.3239 191.216C35.9489 190.867 35.5019 190.693 34.983 190.693C34.1989 190.693 33.5833 191.08 33.1364 191.852C32.6894 192.625 32.464 193.737 32.4602 195.188C32.4602 196.157 32.5606 196.977 32.7614 197.648C32.9659 198.314 33.2557 198.82 33.6307 199.165C34.0057 199.506 34.4564 199.676 34.983 199.676ZM41.419 201V189.364H43.1747V194.92H43.3168L48.1974 189.364H50.4077L45.7145 194.602L50.4247 201H48.3111L44.5497 195.801L43.1747 197.381V201H41.419Z" fill="#1D1D21"/>
<path d="M25.5341 267.364V279H23.7727V269.125H23.7045L20.9205 270.943V269.261L23.8239 267.364H25.5341ZM32.733 279.193C31.8352 279.189 31.0682 278.953 30.4318 278.483C29.7955 278.013 29.3087 277.33 28.9716 276.432C28.6345 275.534 28.4659 274.453 28.4659 273.188C28.4659 271.926 28.6345 270.848 28.9716 269.955C29.3125 269.061 29.8011 268.379 30.4375 267.909C31.0777 267.439 31.8428 267.205 32.733 267.205C33.6231 267.205 34.3864 267.441 35.0227 267.915C35.6591 268.384 36.1458 269.066 36.483 269.96C36.8239 270.85 36.9943 271.926 36.9943 273.188C36.9943 274.456 36.8258 275.54 36.4886 276.438C36.1515 277.331 35.6648 278.015 35.0284 278.489C34.392 278.958 33.6269 279.193 32.733 279.193ZM32.733 277.676C33.5208 277.676 34.1364 277.292 34.5795 276.523C35.0265 275.754 35.25 274.642 35.25 273.188C35.25 272.222 35.1477 271.405 34.9432 270.739C34.7424 270.068 34.4527 269.561 34.0739 269.216C33.6989 268.867 33.2519 268.693 32.733 268.693C31.9489 268.693 31.3333 269.08 30.8864 269.852C30.4394 270.625 30.214 271.737 30.2102 273.188C30.2102 274.157 30.3106 274.977 30.5114 275.648C30.7159 276.314 31.0057 276.82 31.3807 277.165C31.7557 277.506 32.2064 277.676 32.733 277.676ZM39.169 279V267.364H40.9247V272.92H41.0668L45.9474 267.364H48.1577L43.4645 272.602L48.1747 279H46.0611L42.2997 273.801L40.9247 275.381V279H39.169Z" fill="#1D1D21"/>
<path d="M83.1193 301V299.727L87.0568 295.648C87.4773 295.205 87.8239 294.816 88.0966 294.483C88.3731 294.146 88.5795 293.826 88.7159 293.523C88.8523 293.22 88.9205 292.898 88.9205 292.557C88.9205 292.17 88.8295 291.837 88.6477 291.557C88.4659 291.273 88.2178 291.055 87.9034 290.903C87.589 290.748 87.2348 290.67 86.8409 290.67C86.4242 290.67 86.0606 290.756 85.75 290.926C85.4394 291.097 85.2008 291.337 85.0341 291.648C84.8674 291.958 84.7841 292.322 84.7841 292.739H83.108C83.108 292.03 83.2708 291.411 83.5966 290.881C83.9223 290.35 84.3693 289.939 84.9375 289.648C85.5057 289.352 86.1515 289.205 86.875 289.205C87.6061 289.205 88.25 289.35 88.8068 289.642C89.3674 289.93 89.8049 290.324 90.1193 290.824C90.4337 291.32 90.5909 291.881 90.5909 292.506C90.5909 292.938 90.5095 293.36 90.3466 293.773C90.1875 294.186 89.9091 294.646 89.5114 295.153C89.1136 295.657 88.5606 296.269 87.8523 296.989L85.5398 299.409V299.494H90.7784V301H83.1193ZM96.983 301.193C96.0852 301.189 95.3182 300.953 94.6818 300.483C94.0455 300.013 93.5587 299.33 93.2216 298.432C92.8845 297.534 92.7159 296.453 92.7159 295.188C92.7159 293.926 92.8845 292.848 93.2216 291.955C93.5625 291.061 94.0511 290.379 94.6875 289.909C95.3277 289.439 96.0928 289.205 96.983 289.205C97.8731 289.205 98.6364 289.441 99.2727 289.915C99.9091 290.384 100.396 291.066 100.733 291.96C101.074 292.85 101.244 293.926 101.244 295.188C101.244 296.456 101.076 297.54 100.739 298.438C100.402 299.331 99.9148 300.015 99.2784 300.489C98.642 300.958 97.8769 301.193 96.983 301.193ZM96.983 299.676C97.7708 299.676 98.3864 299.292 98.8295 298.523C99.2765 297.754 99.5 296.642 99.5 295.188C99.5 294.222 99.3977 293.405 99.1932 292.739C98.9924 292.068 98.7027 291.561 98.3239 291.216C97.9489 290.867 97.5019 290.693 96.983 290.693C96.1989 290.693 95.5833 291.08 95.1364 291.852C94.6894 292.625 94.464 293.737 94.4602 295.188C94.4602 296.157 94.5606 296.977 94.7614 297.648C94.9659 298.314 95.2557 298.82 95.6307 299.165C96.0057 299.506 96.4564 299.676 96.983 299.676ZM107.675 289.364V301H105.913V291.125H105.845L103.061 292.943V291.261L105.964 289.364H107.675ZM114.874 301.193C113.976 301.189 113.209 300.953 112.572 300.483C111.936 300.013 111.449 299.33 111.112 298.432C110.775 297.534 110.607 296.453 110.607 295.188C110.607 293.926 110.775 292.848 111.112 291.955C111.453 291.061 111.942 290.379 112.578 289.909C113.218 289.439 113.983 289.205 114.874 289.205C115.764 289.205 116.527 289.441 117.163 289.915C117.8 290.384 118.286 291.066 118.624 291.96C118.964 292.85 119.135 293.926 119.135 295.188C119.135 296.456 118.966 297.54 118.629 298.438C118.292 299.331 117.805 300.015 117.169 300.489C116.533 300.958 115.768 301.193 114.874 301.193ZM114.874 299.676C115.661 299.676 116.277 299.292 116.72 298.523C117.167 297.754 117.391 296.642 117.391 295.188C117.391 294.222 117.288 293.405 117.084 292.739C116.883 292.068 116.593 291.561 116.214 291.216C115.839 290.867 115.393 290.693 114.874 290.693C114.089 290.693 113.474 291.08 113.027 291.852C112.58 292.625 112.355 293.737 112.351 295.188C112.351 296.157 112.451 296.977 112.652 297.648C112.857 298.314 113.146 298.82 113.521 299.165C113.896 299.506 114.347 299.676 114.874 299.676Z" fill="#1D1D21"/>
<path d="M145.119 301V299.727L149.057 295.648C149.477 295.205 149.824 294.816 150.097 294.483C150.373 294.146 150.58 293.826 150.716 293.523C150.852 293.22 150.92 292.898 150.92 292.557C150.92 292.17 150.83 291.837 150.648 291.557C150.466 291.273 150.218 291.055 149.903 290.903C149.589 290.748 149.235 290.67 148.841 290.67C148.424 290.67 148.061 290.756 147.75 290.926C147.439 291.097 147.201 291.337 147.034 291.648C146.867 291.958 146.784 292.322 146.784 292.739H145.108C145.108 292.03 145.271 291.411 145.597 290.881C145.922 290.35 146.369 289.939 146.938 289.648C147.506 289.352 148.152 289.205 148.875 289.205C149.606 289.205 150.25 289.35 150.807 289.642C151.367 289.93 151.805 290.324 152.119 290.824C152.434 291.32 152.591 291.881 152.591 292.506C152.591 292.938 152.509 293.36 152.347 293.773C152.188 294.186 151.909 294.646 151.511 295.153C151.114 295.657 150.561 296.269 149.852 296.989L147.54 299.409V299.494H152.778V301H145.119ZM158.983 301.193C158.085 301.189 157.318 300.953 156.682 300.483C156.045 300.013 155.559 299.33 155.222 298.432C154.884 297.534 154.716 296.453 154.716 295.188C154.716 293.926 154.884 292.848 155.222 291.955C155.563 291.061 156.051 290.379 156.688 289.909C157.328 289.439 158.093 289.205 158.983 289.205C159.873 289.205 160.636 289.441 161.273 289.915C161.909 290.384 162.396 291.066 162.733 291.96C163.074 292.85 163.244 293.926 163.244 295.188C163.244 296.456 163.076 297.54 162.739 298.438C162.402 299.331 161.915 300.015 161.278 300.489C160.642 300.958 159.877 301.193 158.983 301.193ZM158.983 299.676C159.771 299.676 160.386 299.292 160.83 298.523C161.277 297.754 161.5 296.642 161.5 295.188C161.5 294.222 161.398 293.405 161.193 292.739C160.992 292.068 160.703 291.561 160.324 291.216C159.949 290.867 159.502 290.693 158.983 290.693C158.199 290.693 157.583 291.08 157.136 291.852C156.689 292.625 156.464 293.737 156.46 295.188C156.46 296.157 156.561 296.977 156.761 297.648C156.966 298.314 157.256 298.82 157.631 299.165C158.006 299.506 158.456 299.676 158.983 299.676ZM169.675 289.364V301H167.913V291.125H167.845L165.061 292.943V291.261L167.964 289.364H169.675ZM176.663 301.159C175.951 301.159 175.311 301.023 174.743 300.75C174.179 300.473 173.728 300.095 173.391 299.614C173.054 299.133 172.874 298.583 172.851 297.966H174.555C174.597 298.466 174.819 298.877 175.22 299.199C175.622 299.521 176.103 299.682 176.663 299.682C177.11 299.682 177.506 299.58 177.851 299.375C178.199 299.167 178.472 298.881 178.669 298.517C178.87 298.153 178.97 297.739 178.97 297.273C178.97 296.799 178.868 296.377 178.663 296.006C178.459 295.634 178.177 295.343 177.817 295.131C177.461 294.919 177.052 294.811 176.589 294.807C176.237 294.807 175.883 294.867 175.527 294.989C175.171 295.11 174.883 295.269 174.663 295.466L173.055 295.227L173.709 289.364H180.107V290.869H175.169L174.8 294.125H174.868C175.095 293.905 175.396 293.722 175.771 293.574C176.15 293.426 176.555 293.352 176.987 293.352C177.696 293.352 178.326 293.521 178.879 293.858C179.436 294.195 179.874 294.655 180.192 295.239C180.514 295.818 180.673 296.485 180.669 297.239C180.673 297.992 180.502 298.665 180.158 299.256C179.817 299.847 179.343 300.312 178.737 300.653C178.135 300.991 177.444 301.159 176.663 301.159Z" fill="#1D1D21"/>
<path d="M206.119 301V299.727L210.057 295.648C210.477 295.205 210.824 294.816 211.097 294.483C211.373 294.146 211.58 293.826 211.716 293.523C211.852 293.22 211.92 292.898 211.92 292.557C211.92 292.17 211.83 291.837 211.648 291.557C211.466 291.273 211.218 291.055 210.903 290.903C210.589 290.748 210.235 290.67 209.841 290.67C209.424 290.67 209.061 290.756 208.75 290.926C208.439 291.097 208.201 291.337 208.034 291.648C207.867 291.958 207.784 292.322 207.784 292.739H206.108C206.108 292.03 206.271 291.411 206.597 290.881C206.922 290.35 207.369 289.939 207.938 289.648C208.506 289.352 209.152 289.205 209.875 289.205C210.606 289.205 211.25 289.35 211.807 289.642C212.367 289.93 212.805 290.324 213.119 290.824C213.434 291.32 213.591 291.881 213.591 292.506C213.591 292.938 213.509 293.36 213.347 293.773C213.188 294.186 212.909 294.646 212.511 295.153C212.114 295.657 211.561 296.269 210.852 296.989L208.54 299.409V299.494H213.778V301H206.119ZM219.983 301.193C219.085 301.189 218.318 300.953 217.682 300.483C217.045 300.013 216.559 299.33 216.222 298.432C215.884 297.534 215.716 296.453 215.716 295.188C215.716 293.926 215.884 292.848 216.222 291.955C216.563 291.061 217.051 290.379 217.688 289.909C218.328 289.439 219.093 289.205 219.983 289.205C220.873 289.205 221.636 289.441 222.273 289.915C222.909 290.384 223.396 291.066 223.733 291.96C224.074 292.85 224.244 293.926 224.244 295.188C224.244 296.456 224.076 297.54 223.739 298.438C223.402 299.331 222.915 300.015 222.278 300.489C221.642 300.958 220.877 301.193 219.983 301.193ZM219.983 299.676C220.771 299.676 221.386 299.292 221.83 298.523C222.277 297.754 222.5 296.642 222.5 295.188C222.5 294.222 222.398 293.405 222.193 292.739C221.992 292.068 221.703 291.561 221.324 291.216C220.949 290.867 220.502 290.693 219.983 290.693C219.199 290.693 218.583 291.08 218.136 291.852C217.689 292.625 217.464 293.737 217.46 295.188C217.46 296.157 217.561 296.977 217.761 297.648C217.966 298.314 218.256 298.82 218.631 299.165C219.006 299.506 219.456 299.676 219.983 299.676ZM226.26 301V299.727L230.197 295.648C230.618 295.205 230.964 294.816 231.237 294.483C231.514 294.146 231.72 293.826 231.857 293.523C231.993 293.22 232.061 292.898 232.061 292.557C232.061 292.17 231.97 291.837 231.788 291.557C231.607 291.273 231.358 291.055 231.044 290.903C230.73 290.748 230.375 290.67 229.982 290.67C229.565 290.67 229.201 290.756 228.891 290.926C228.58 291.097 228.341 291.337 228.175 291.648C228.008 291.958 227.925 292.322 227.925 292.739H226.249C226.249 292.03 226.411 291.411 226.737 290.881C227.063 290.35 227.51 289.939 228.078 289.648C228.646 289.352 229.292 289.205 230.016 289.205C230.747 289.205 231.391 289.35 231.947 289.642C232.508 289.93 232.946 290.324 233.26 290.824C233.574 291.32 233.732 291.881 233.732 292.506C233.732 292.938 233.65 293.36 233.487 293.773C233.328 294.186 233.05 294.646 232.652 295.153C232.254 295.657 231.701 296.269 230.993 296.989L228.68 299.409V299.494H233.919V301H226.26ZM240.124 301.159C239.343 301.159 238.646 301.025 238.033 300.756C237.423 300.487 236.94 300.114 236.584 299.636C236.232 299.155 236.042 298.598 236.016 297.966H237.8C237.822 298.311 237.938 298.61 238.146 298.864C238.358 299.114 238.635 299.307 238.976 299.443C239.317 299.58 239.696 299.648 240.112 299.648C240.571 299.648 240.976 299.568 241.328 299.409C241.684 299.25 241.963 299.028 242.163 298.744C242.364 298.456 242.464 298.125 242.464 297.75C242.464 297.36 242.364 297.017 242.163 296.722C241.966 296.422 241.677 296.187 241.294 296.017C240.915 295.847 240.457 295.761 239.919 295.761H238.936V294.33H239.919C240.351 294.33 240.73 294.252 241.055 294.097C241.385 293.941 241.643 293.725 241.828 293.449C242.014 293.169 242.107 292.841 242.107 292.466C242.107 292.106 242.025 291.794 241.862 291.528C241.703 291.259 241.476 291.049 241.18 290.898C240.889 290.746 240.544 290.67 240.146 290.67C239.768 290.67 239.413 290.741 239.084 290.881C238.758 291.017 238.493 291.214 238.288 291.472C238.084 291.725 237.974 292.03 237.959 292.386H236.26C236.279 291.758 236.464 291.205 236.817 290.727C237.173 290.25 237.643 289.877 238.226 289.608C238.809 289.339 239.457 289.205 240.169 289.205C240.915 289.205 241.559 289.35 242.101 289.642C242.646 289.93 243.067 290.314 243.362 290.795C243.661 291.277 243.809 291.803 243.805 292.375C243.809 293.027 243.627 293.58 243.26 294.034C242.896 294.489 242.411 294.794 241.805 294.949V295.04C242.578 295.157 243.177 295.464 243.601 295.96C244.029 296.456 244.241 297.072 244.237 297.807C244.241 298.447 244.063 299.021 243.703 299.528C243.347 300.036 242.86 300.436 242.243 300.727C241.625 301.015 240.919 301.159 240.124 301.159Z" fill="#1D1D21"/>
</svg>
