<svg width="268" height="341" viewBox="0 0 268 341" fill="none" xmlns="http://www.w3.org/2000/svg">
<rect width="268" height="341" rx="20" fill="#FCFCFC"/>
<mask id="mask0_36_1680" style="mask-type:alpha" maskUnits="userSpaceOnUse" x="0" y="0" width="268" height="332">
<rect width="268" height="332" rx="20" fill="white"/>
</mask>
<g mask="url(#mask0_36_1680)">
<path d="M30.5315 42.2758C30.4557 41.6035 30.1432 41.0826 29.594 40.7133C29.0448 40.3393 28.3535 40.1522 27.5201 40.1522C26.9235 40.1522 26.4074 40.2469 25.9718 40.4363C25.5362 40.621 25.1977 40.8767 24.9562 41.2034C24.7195 41.5253 24.6011 41.8923 24.6011 42.3042C24.6011 42.6499 24.6816 42.9482 24.8426 43.1991C25.0083 43.4501 25.2237 43.6608 25.4889 43.8312C25.7588 43.9969 26.0476 44.1366 26.3554 44.2502C26.6631 44.3591 26.9591 44.4491 27.2431 44.5201L28.6636 44.8894C29.1276 45.0031 29.6035 45.157 30.0912 45.3511C30.5788 45.5452 31.031 45.8009 31.4477 46.1181C31.8644 46.4354 32.2005 46.8284 32.4562 47.2971C32.7166 47.7659 32.8468 48.3269 32.8468 48.9804C32.8468 49.8042 32.6338 50.5358 32.2076 51.175C31.7862 51.8142 31.1731 52.3184 30.3681 52.6877C29.568 53.0571 28.5997 53.2417 27.4633 53.2417C26.3743 53.2417 25.4321 53.0689 24.6366 52.7233C23.8412 52.3776 23.2185 51.8876 22.7687 51.2531C22.3189 50.6139 22.0703 49.8563 22.023 48.9804H24.2247C24.2673 49.5059 24.4377 49.9439 24.736 50.2943C25.0391 50.6399 25.425 50.898 25.8937 51.0684C26.3672 51.2341 26.8857 51.317 27.4491 51.317C28.0694 51.317 28.621 51.2199 29.1039 51.0258C29.5916 50.8269 29.9751 50.5523 30.2545 50.2019C30.5339 49.8468 30.6735 49.4325 30.6735 48.9591C30.6735 48.5282 30.5504 48.1754 30.3042 47.9008C30.0627 47.6262 29.7337 47.3989 29.317 47.219C28.9051 47.0391 28.4387 46.8805 27.9179 46.7431L26.1991 46.2744C25.0343 45.9572 24.111 45.4908 23.4292 44.8752C22.7521 44.2597 22.4136 43.4453 22.4136 42.4321C22.4136 41.594 22.6409 40.8625 23.0954 40.2375C23.55 39.6125 24.1655 39.1271 24.942 38.7815C25.7185 38.4311 26.5945 38.2559 27.5698 38.2559C28.5547 38.2559 29.4235 38.4287 30.1764 38.7744C30.934 39.12 31.5305 39.5959 31.9662 40.2019C32.4018 40.8033 32.629 41.4946 32.648 42.2758H30.5315ZM35.2989 53.0002V42.0912H37.3372V43.8667H37.4722C37.6995 43.2654 38.0711 42.7966 38.5872 42.4605C39.1033 42.1196 39.7212 41.9491 40.4409 41.9491C41.1701 41.9491 41.7809 42.1196 42.2733 42.4605C42.7705 42.8014 43.1374 43.2701 43.3742 43.8667H43.4878C43.7482 43.2843 44.1625 42.8203 44.7307 42.4747C45.2989 42.1243 45.976 41.9491 46.762 41.9491C47.7515 41.9491 48.5588 42.2592 49.1838 42.8795C49.8136 43.4998 50.1284 44.4349 50.1284 45.6849V53.0002H48.0049V45.8838C48.0049 45.1451 47.8036 44.6101 47.4012 44.2787C46.9987 43.9472 46.5181 43.7815 45.9594 43.7815C45.2681 43.7815 44.7307 43.9946 44.3472 44.4207C43.9637 44.8421 43.7719 45.3842 43.7719 46.0471V53.0002H41.6554V45.7488C41.6554 45.157 41.4708 44.6811 41.1015 44.3213C40.7321 43.9614 40.2515 43.7815 39.6597 43.7815C39.2572 43.7815 38.8855 43.888 38.5446 44.1011C38.2085 44.3094 37.9362 44.6006 37.7279 44.9747C37.5243 45.3487 37.4225 45.782 37.4225 46.2744V53.0002H35.2989ZM56.1494 53.2417C55.4581 53.2417 54.8331 53.1139 54.2744 52.8582C53.7157 52.5978 53.273 52.2214 52.9463 51.7289C52.6243 51.2365 52.4633 50.6328 52.4633 49.9179C52.4633 49.3023 52.5817 48.7957 52.8184 48.398C53.0552 48.0002 53.3748 47.6854 53.7772 47.4534C54.1797 47.2214 54.6295 47.0462 55.1267 46.9278C55.6238 46.8094 56.1305 46.7195 56.6466 46.6579C57.3 46.5822 57.8303 46.5206 58.2375 46.4733C58.6447 46.4212 58.9406 46.3383 59.1252 46.2247C59.3099 46.111 59.4022 45.9264 59.4022 45.6707V45.621C59.4022 45.0007 59.227 44.5201 58.8767 44.1792C58.531 43.8383 58.0149 43.6679 57.3284 43.6679C56.6134 43.6679 56.05 43.8265 55.638 44.1437C55.2308 44.4562 54.9491 44.8042 54.7929 45.1877L52.7971 44.7332C53.0339 44.0703 53.3795 43.5353 53.8341 43.1281C54.2933 42.7162 54.8213 42.4179 55.4179 42.2332C56.0144 42.0438 56.6418 41.9491 57.3 41.9491C57.7356 41.9491 58.1972 42.0012 58.6849 42.1054C59.1773 42.2048 59.6366 42.3894 60.0627 42.6593C60.4936 42.9292 60.8464 43.3151 61.121 43.817C61.3956 44.3142 61.5329 44.9605 61.5329 45.7559V53.0002H59.4591V51.5088H59.3738C59.2365 51.7834 59.0305 52.0533 58.7559 52.3184C58.4813 52.5836 58.1286 52.8037 57.6977 52.9789C57.2668 53.1541 56.7507 53.2417 56.1494 53.2417ZM56.611 51.5372C57.1982 51.5372 57.7001 51.4212 58.1167 51.1892C58.5381 50.9572 58.8577 50.6541 59.0755 50.2801C59.2981 49.9013 59.4093 49.4965 59.4093 49.0656V47.6593C59.3336 47.7351 59.1868 47.8061 58.969 47.8724C58.7559 47.934 58.5121 47.9884 58.2375 48.0358C57.9628 48.0784 57.6953 48.1186 57.4349 48.1565C57.1745 48.1896 56.9567 48.218 56.7815 48.2417C56.3696 48.2938 55.9931 48.3814 55.6522 48.5045C55.3161 48.6276 55.0462 48.8052 54.8426 49.0372C54.6437 49.2644 54.5443 49.5675 54.5443 49.9463C54.5443 50.4718 54.7384 50.8696 55.1267 51.1394C55.5149 51.4046 56.0097 51.5372 56.611 51.5372ZM64.3614 53.0002V42.0912H66.414V43.8241H66.5276C66.7265 43.237 67.0768 42.7753 67.5787 42.4392C68.0854 42.0983 68.6583 41.9278 69.2975 41.9278C69.43 41.9278 69.5863 41.9325 69.7662 41.942C69.9509 41.9515 70.0953 41.9633 70.1995 41.9775V44.0088C70.1142 43.9851 69.9627 43.9591 69.7449 43.9306C69.5271 43.8975 69.3093 43.8809 69.0915 43.8809C68.5896 43.8809 68.1422 43.9875 67.7492 44.2005C67.3609 44.4089 67.0532 44.7001 66.8259 45.0741C66.5986 45.4434 66.485 45.8648 66.485 46.3383V53.0002H64.3614ZM77.774 42.0912V43.7957H71.8152V42.0912H77.774ZM73.4132 39.4775H75.5368V49.7971C75.5368 50.2091 75.5984 50.5192 75.7215 50.7275C75.8446 50.9311 76.0032 51.0708 76.1973 51.1466C76.3962 51.2176 76.6116 51.2531 76.8436 51.2531C77.0141 51.2531 77.1632 51.2412 77.2911 51.2176C77.4189 51.1939 77.5184 51.175 77.5894 51.1608L77.9729 52.915C77.8498 52.9624 77.6746 53.0097 77.4473 53.0571C77.2201 53.1091 76.936 53.1376 76.5951 53.1423C76.0363 53.1518 75.5155 53.0523 75.0326 52.844C74.5496 52.6357 74.159 52.3137 73.8607 51.8781C73.5624 51.4425 73.4132 50.8956 73.4132 50.2375V39.4775ZM90.2953 53.0002H85.5865V38.4548H90.4445C91.8697 38.4548 93.0936 38.746 94.1164 39.3284C95.1391 39.906 95.9227 40.737 96.4672 41.8213C97.0165 42.9008 97.2911 44.1958 97.2911 45.7062C97.2911 47.2214 97.0141 48.5234 96.4601 49.6125C95.9109 50.7015 95.1154 51.5395 94.0738 52.1267C93.0321 52.7091 91.7726 53.0002 90.2953 53.0002ZM87.7811 51.0826H90.1746C91.2826 51.0826 92.2035 50.8743 92.9374 50.4576C93.6713 50.0362 94.2205 49.4278 94.5851 48.6323C94.9497 47.8322 95.132 46.8568 95.132 45.7062C95.132 44.5651 94.9497 43.5968 94.5851 42.8014C94.2253 42.0059 93.6879 41.4022 92.9729 40.9903C92.2579 40.5784 91.3702 40.3724 90.3095 40.3724H87.7811V51.0826ZM104.551 53.2204C103.477 53.2204 102.551 52.9908 101.774 52.5315C101.003 52.0675 100.406 51.4164 99.9846 50.5784C99.568 49.7356 99.3596 48.7483 99.3596 47.6167C99.3596 46.4993 99.568 45.5144 99.9846 44.6622C100.406 43.8099 100.993 43.1447 101.746 42.6664C102.504 42.1882 103.389 41.9491 104.402 41.9491C105.018 41.9491 105.614 42.0509 106.192 42.2545C106.77 42.4581 107.288 42.7777 107.747 43.2133C108.207 43.6489 108.569 44.2147 108.834 44.9108C109.099 45.602 109.232 46.4425 109.232 47.4321V48.1849H100.56V46.594H107.151C107.151 46.0353 107.037 45.5405 106.81 45.1096C106.583 44.674 106.263 44.3307 105.851 44.0798C105.444 43.8288 104.966 43.7034 104.416 43.7034C103.82 43.7034 103.299 43.8501 102.854 44.1437C102.414 44.4325 102.073 44.8113 101.831 45.2801C101.594 45.7441 101.476 46.2483 101.476 46.7929V48.0358C101.476 48.7649 101.604 49.3852 101.86 49.8966C102.12 50.4079 102.482 50.7985 102.946 51.0684C103.41 51.3336 103.952 51.4662 104.573 51.4662C104.975 51.4662 105.342 51.4093 105.674 51.2957C106.005 51.1773 106.291 51.0021 106.533 50.7701C106.774 50.5381 106.959 50.2517 107.087 49.9108L109.097 50.273C108.936 50.8648 108.647 51.3833 108.23 51.8284C107.818 52.2687 107.3 52.612 106.675 52.8582C106.055 53.0997 105.347 53.2204 104.551 53.2204ZM120.608 42.0912L116.652 53.0002H114.379L110.416 42.0912H112.696L115.459 50.486H115.572L118.328 42.0912H120.608ZM126.934 53.2204C125.859 53.2204 124.934 52.9908 124.157 52.5315C123.385 52.0675 122.789 51.4164 122.367 50.5784C121.951 49.7356 121.742 48.7483 121.742 47.6167C121.742 46.4993 121.951 45.5144 122.367 44.6622C122.789 43.8099 123.376 43.1447 124.129 42.6664C124.886 42.1882 125.772 41.9491 126.785 41.9491C127.401 41.9491 127.997 42.0509 128.575 42.2545C129.152 42.4581 129.671 42.7777 130.13 43.2133C130.589 43.6489 130.952 44.2147 131.217 44.9108C131.482 45.602 131.615 46.4425 131.615 47.4321V48.1849H122.943V46.594H129.534C129.534 46.0353 129.42 45.5405 129.193 45.1096C128.965 44.674 128.646 44.3307 128.234 44.0798C127.827 43.8288 127.348 43.7034 126.799 43.7034C126.203 43.7034 125.682 43.8501 125.237 44.1437C124.796 44.4325 124.455 44.8113 124.214 45.2801C123.977 45.7441 123.859 46.2483 123.859 46.7929V48.0358C123.859 48.7649 123.987 49.3852 124.242 49.8966C124.503 50.4079 124.865 50.7985 125.329 51.0684C125.793 51.3336 126.335 51.4662 126.955 51.4662C127.358 51.4662 127.725 51.4093 128.056 51.2957C128.388 51.1773 128.674 51.0021 128.916 50.7701C129.157 50.5381 129.342 50.2517 129.47 49.9108L131.48 50.273C131.319 50.8648 131.03 51.3833 130.613 51.8284C130.201 52.2687 129.683 52.612 129.058 52.8582C128.438 53.0997 127.73 53.2204 126.934 53.2204ZM136.094 38.4548V53.0002H133.971V38.4548H136.094ZM143.546 53.2204C142.524 53.2204 141.631 52.986 140.869 52.5173C140.107 52.0485 139.515 51.3928 139.093 50.55C138.672 49.7072 138.461 48.7223 138.461 47.5954C138.461 46.4638 138.672 45.4742 139.093 44.6267C139.515 43.7791 140.107 43.121 140.869 42.6522C141.631 42.1835 142.524 41.9491 143.546 41.9491C144.569 41.9491 145.462 42.1835 146.224 42.6522C146.986 43.121 147.578 43.7791 148 44.6267C148.421 45.4742 148.632 46.4638 148.632 47.5954C148.632 48.7223 148.421 49.7072 148 50.55C147.578 51.3928 146.986 52.0485 146.224 52.5173C145.462 52.986 144.569 53.2204 143.546 53.2204ZM143.554 51.4377C144.216 51.4377 144.766 51.2626 145.201 50.9122C145.637 50.5618 145.959 50.0954 146.167 49.513C146.38 48.9306 146.487 48.2891 146.487 47.5883C146.487 46.8923 146.38 46.2531 146.167 45.6707C145.959 45.0836 145.637 44.6125 145.201 44.2573C144.766 43.9022 144.216 43.7247 143.554 43.7247C142.886 43.7247 142.332 43.9022 141.892 44.2573C141.456 44.6125 141.132 45.0836 140.919 45.6707C140.71 46.2531 140.606 46.8923 140.606 47.5883C140.606 48.2891 140.71 48.9306 140.919 49.513C141.132 50.0954 141.456 50.5618 141.892 50.9122C142.332 51.2626 142.886 51.4377 143.554 51.4377ZM151.002 57.0912V42.0912H153.076V43.8596H153.253C153.377 43.6323 153.554 43.3696 153.786 43.0713C154.018 42.773 154.34 42.5126 154.752 42.29C155.164 42.0627 155.708 41.9491 156.386 41.9491C157.266 41.9491 158.052 42.1716 158.743 42.6167C159.435 43.0618 159.977 43.7034 160.37 44.5414C160.768 45.3795 160.967 46.388 160.967 47.567C160.967 48.746 160.77 49.7569 160.377 50.5997C159.984 51.4377 159.444 52.0841 158.758 52.5386C158.071 52.9884 157.288 53.2133 156.407 53.2133C155.744 53.2133 155.202 53.102 154.78 52.8795C154.364 52.657 154.037 52.3966 153.8 52.0983C153.564 51.8 153.381 51.5348 153.253 51.3028H153.126V57.0912H151.002ZM153.083 47.5457C153.083 48.3127 153.194 48.9851 153.417 49.5627C153.639 50.1404 153.961 50.5926 154.383 50.9193C154.804 51.2412 155.32 51.4022 155.931 51.4022C156.565 51.4022 157.096 51.2341 157.522 50.898C157.948 50.5571 158.27 50.0954 158.488 49.513C158.71 48.9306 158.822 48.2749 158.822 47.5457C158.822 46.826 158.713 46.1797 158.495 45.6068C158.282 45.0339 157.96 44.5817 157.529 44.2502C157.103 43.9188 156.57 43.7531 155.931 43.7531C155.315 43.7531 154.795 43.9117 154.368 44.2289C153.947 44.5462 153.627 44.9889 153.41 45.5571C153.192 46.1252 153.083 46.7881 153.083 47.5457ZM163.346 53.0002V42.0912H165.384V43.8667H165.519C165.746 43.2654 166.118 42.7966 166.634 42.4605C167.15 42.1196 167.768 41.9491 168.488 41.9491C169.217 41.9491 169.828 42.1196 170.32 42.4605C170.817 42.8014 171.184 43.2701 171.421 43.8667H171.535C171.795 43.2843 172.209 42.8203 172.778 42.4747C173.346 42.1243 174.023 41.9491 174.809 41.9491C175.798 41.9491 176.606 42.2592 177.231 42.8795C177.86 43.4998 178.175 44.4349 178.175 45.6849V53.0002H176.052V45.8838C176.052 45.1451 175.851 44.6101 175.448 44.2787C175.046 43.9472 174.565 43.7815 174.006 43.7815C173.315 43.7815 172.778 43.9946 172.394 44.4207C172.011 44.8421 171.819 45.3842 171.819 46.0471V53.0002H169.702V45.7488C169.702 45.157 169.518 44.6811 169.148 44.3213C168.779 43.9614 168.298 43.7815 167.707 43.7815C167.304 43.7815 166.932 43.888 166.592 44.1011C166.255 44.3094 165.983 44.6006 165.775 44.9747C165.571 45.3487 165.469 45.782 165.469 46.2744V53.0002H163.346ZM185.723 53.2204C184.648 53.2204 183.723 52.9908 182.946 52.5315C182.174 52.0675 181.578 51.4164 181.156 50.5784C180.74 49.7356 180.531 48.7483 180.531 47.6167C180.531 46.4993 180.74 45.5144 181.156 44.6622C181.578 43.8099 182.165 43.1447 182.918 42.6664C183.675 42.1882 184.561 41.9491 185.574 41.9491C186.19 41.9491 186.786 42.0509 187.364 42.2545C187.942 42.4581 188.46 42.7777 188.919 43.2133C189.379 43.6489 189.741 44.2147 190.006 44.9108C190.271 45.602 190.404 46.4425 190.404 47.4321V48.1849H181.732V46.594H188.323C188.323 46.0353 188.209 45.5405 187.982 45.1096C187.755 44.674 187.435 44.3307 187.023 44.0798C186.616 43.8288 186.138 43.7034 185.588 43.7034C184.992 43.7034 184.471 43.8501 184.026 44.1437C183.585 44.4325 183.245 44.8113 183.003 45.2801C182.766 45.7441 182.648 46.2483 182.648 46.7929V48.0358C182.648 48.7649 182.776 49.3852 183.031 49.8966C183.292 50.4079 183.654 50.7985 184.118 51.0684C184.582 51.3336 185.124 51.4662 185.745 51.4662C186.147 51.4662 186.514 51.4093 186.845 51.2957C187.177 51.1773 187.463 51.0021 187.705 50.7701C187.946 50.5381 188.131 50.2517 188.259 49.9108L190.269 50.273C190.108 50.8648 189.819 51.3833 189.402 51.8284C188.99 52.2687 188.472 52.612 187.847 52.8582C187.227 53.0997 186.519 53.2204 185.723 53.2204ZM194.883 46.523V53.0002H192.76V42.0912H194.798V43.8667H194.933C195.184 43.2891 195.577 42.8251 196.112 42.4747C196.652 42.1243 197.331 41.9491 198.15 41.9491C198.894 41.9491 199.545 42.1054 200.104 42.4179C200.662 42.7256 201.096 43.1849 201.403 43.7957C201.711 44.4065 201.865 45.1617 201.865 46.0613V53.0002H199.741V46.317C199.741 45.5263 199.535 44.9084 199.123 44.4633C198.712 44.0135 198.146 43.7886 197.426 43.7886C196.934 43.7886 196.496 43.8951 196.112 44.1082C195.733 44.3213 195.433 44.6338 195.21 45.0457C194.992 45.4529 194.883 45.9453 194.883 46.523ZM209.805 42.0912V43.7957H203.846V42.0912H209.805ZM205.444 39.4775H207.568V49.7971C207.568 50.2091 207.63 50.5192 207.753 50.7275C207.876 50.9311 208.034 51.0708 208.229 51.1466C208.427 51.2176 208.643 51.2531 208.875 51.2531C209.045 51.2531 209.194 51.2412 209.322 51.2176C209.45 51.1939 209.55 51.175 209.621 51.1608L210.004 52.915C209.881 52.9624 209.706 53.0097 209.479 53.0571C209.251 53.1091 208.967 53.1376 208.626 53.1423C208.068 53.1518 207.547 53.0523 207.064 52.844C206.581 52.6357 206.19 52.3137 205.892 51.8781C205.594 51.4425 205.444 50.8956 205.444 50.2375V39.4775Z" fill="#060815"/>
<path d="M47.0888 285.137H45.6115L49.8842 273.5H51.3388L55.6115 285.137H54.1342L50.6569 275.341H50.566L47.0888 285.137ZM47.6342 280.591H53.5888V281.841H47.6342V280.591ZM60.7876 285.318C59.9694 285.318 59.2649 285.125 58.674 284.739C58.0831 284.353 57.6285 283.82 57.3103 283.142C56.9922 282.464 56.8331 281.69 56.8331 280.818C56.8331 279.932 56.996 279.15 57.3217 278.472C57.6513 277.79 58.1096 277.258 58.6967 276.875C59.2876 276.489 59.977 276.296 60.7649 276.296C61.3785 276.296 61.9316 276.409 62.424 276.637C62.9164 276.864 63.3198 277.182 63.6342 277.591C63.9486 278 64.1437 278.478 64.2194 279.023H62.8785C62.7763 278.625 62.549 278.273 62.1967 277.966C61.8482 277.656 61.3785 277.5 60.7876 277.5C60.2649 277.5 59.8066 277.637 59.4126 277.909C59.0225 278.178 58.7175 278.559 58.4978 279.051C58.2819 279.54 58.174 280.114 58.174 280.773C58.174 281.447 58.28 282.034 58.4922 282.534C58.7081 283.034 59.0111 283.423 59.4013 283.699C59.7952 283.976 60.2573 284.114 60.7876 284.114C61.1361 284.114 61.4524 284.053 61.7365 283.932C62.0206 283.811 62.2611 283.637 62.4581 283.409C62.655 283.182 62.7952 282.909 62.8785 282.591H64.2194C64.1437 283.106 63.9562 283.57 63.6569 283.983C63.3615 284.392 62.9694 284.718 62.4808 284.96C61.996 285.199 61.4316 285.318 60.7876 285.318ZM69.9751 276.409V277.546H65.4524V276.409H69.9751ZM66.7706 274.318H68.1115V282.637C68.1115 283.015 68.1664 283.299 68.2763 283.489C68.3899 283.674 68.5338 283.799 68.7081 283.864C68.8861 283.924 69.0736 283.955 69.2706 283.955C69.4183 283.955 69.5395 283.947 69.6342 283.932C69.7289 283.913 69.8047 283.898 69.8615 283.887L70.1342 285.091C70.0433 285.125 69.9164 285.159 69.7535 285.193C69.5907 285.231 69.3842 285.25 69.1342 285.25C68.7554 285.25 68.3842 285.169 68.0206 285.006C67.6607 284.843 67.3615 284.595 67.1228 284.262C66.888 283.928 66.7706 283.508 66.7706 283V274.318ZM71.9922 285.137V276.409H73.3331V285.137H71.9922ZM72.674 274.955C72.4126 274.955 72.1872 274.866 71.9978 274.688C71.8122 274.51 71.7194 274.296 71.7194 274.046C71.7194 273.796 71.8122 273.582 71.9978 273.404C72.1872 273.226 72.4126 273.137 72.674 273.137C72.9353 273.137 73.1588 273.226 73.3444 273.404C73.5338 273.582 73.6285 273.796 73.6285 274.046C73.6285 274.296 73.5338 274.51 73.3444 274.688C73.1588 274.866 72.9353 274.955 72.674 274.955ZM82.9254 276.409L79.6981 285.137H78.3345L75.1072 276.409H76.5618L78.9709 283.364H79.0618L81.4709 276.409H82.9254ZM88.0419 285.318C87.201 285.318 86.4756 285.133 85.8657 284.762C85.2597 284.387 84.7919 283.864 84.4623 283.193C84.1366 282.519 83.9737 281.735 83.9737 280.841C83.9737 279.947 84.1366 279.159 84.4623 278.478C84.7919 277.792 85.2502 277.258 85.8373 276.875C86.4282 276.489 87.1176 276.296 87.9055 276.296C88.3601 276.296 88.8089 276.371 89.2521 276.523C89.6953 276.674 90.0987 276.921 90.4623 277.262C90.826 277.599 91.1157 278.046 91.3317 278.603C91.5476 279.159 91.6555 279.845 91.6555 280.659V281.228H84.9282V280.068H90.2919C90.2919 279.576 90.1934 279.137 89.9964 278.75C89.8032 278.364 89.5267 278.059 89.1669 277.835C88.8108 277.612 88.3904 277.5 87.9055 277.5C87.3714 277.5 86.9093 277.633 86.5192 277.898C86.1328 278.159 85.8354 278.5 85.6271 278.921C85.4188 279.341 85.3146 279.792 85.3146 280.273V281.046C85.3146 281.705 85.4282 282.263 85.6555 282.722C85.8866 283.176 86.2067 283.523 86.6157 283.762C87.0248 283.996 87.5002 284.114 88.0419 284.114C88.3942 284.114 88.7123 284.065 88.9964 283.966C89.2843 283.864 89.5324 283.712 89.7407 283.512C89.9491 283.307 90.1101 283.053 90.2237 282.75L91.5192 283.114C91.3828 283.553 91.1536 283.94 90.8317 284.273C90.5097 284.603 90.112 284.86 89.6385 285.046C89.165 285.228 88.6328 285.318 88.0419 285.318ZM103.695 281.568V276.409H105.036V285.137H103.695V283.659H103.604C103.4 284.103 103.082 284.479 102.65 284.79C102.218 285.097 101.673 285.25 101.013 285.25C100.468 285.25 99.9832 285.131 99.5589 284.892C99.1347 284.65 98.8014 284.286 98.5589 283.801C98.3165 283.313 98.1953 282.697 98.1953 281.955V276.409H99.5362V281.864C99.5362 282.5 99.7142 283.008 100.07 283.387C100.43 283.765 100.888 283.955 101.445 283.955C101.779 283.955 102.118 283.87 102.462 283.699C102.811 283.529 103.102 283.267 103.337 282.915C103.576 282.563 103.695 282.114 103.695 281.568ZM113.674 278.364L112.469 278.705C112.394 278.504 112.282 278.309 112.134 278.12C111.99 277.926 111.793 277.767 111.543 277.642C111.293 277.517 110.973 277.455 110.583 277.455C110.049 277.455 109.604 277.578 109.248 277.824C108.896 278.067 108.719 278.375 108.719 278.75C108.719 279.084 108.841 279.347 109.083 279.54C109.325 279.733 109.704 279.894 110.219 280.023L111.515 280.341C112.295 280.531 112.877 280.82 113.259 281.21C113.642 281.597 113.833 282.095 113.833 282.705C113.833 283.205 113.689 283.652 113.401 284.046C113.117 284.44 112.719 284.75 112.208 284.978C111.697 285.205 111.102 285.318 110.424 285.318C109.534 285.318 108.797 285.125 108.214 284.739C107.63 284.353 107.261 283.788 107.106 283.046L108.379 282.728C108.5 283.197 108.729 283.549 109.066 283.784C109.407 284.019 109.852 284.137 110.401 284.137C111.026 284.137 111.522 284.004 111.89 283.739C112.261 283.47 112.447 283.148 112.447 282.773C112.447 282.47 112.341 282.216 112.129 282.012C111.916 281.803 111.591 281.648 111.151 281.546L109.697 281.205C108.897 281.015 108.31 280.722 107.935 280.324C107.564 279.923 107.379 279.421 107.379 278.818C107.379 278.326 107.517 277.89 107.793 277.512C108.074 277.133 108.454 276.835 108.935 276.62C109.42 276.404 109.969 276.296 110.583 276.296C111.447 276.296 112.125 276.485 112.617 276.864C113.113 277.243 113.466 277.743 113.674 278.364ZM119.511 285.318C118.67 285.318 117.944 285.133 117.334 284.762C116.728 284.387 116.261 283.864 115.931 283.193C115.605 282.519 115.442 281.735 115.442 280.841C115.442 279.947 115.605 279.159 115.931 278.478C116.261 277.792 116.719 277.258 117.306 276.875C117.897 276.489 118.586 276.296 119.374 276.296C119.829 276.296 120.278 276.371 120.721 276.523C121.164 276.674 121.567 276.921 121.931 277.262C122.295 277.599 122.584 278.046 122.8 278.603C123.016 279.159 123.124 279.845 123.124 280.659V281.228H116.397V280.068H121.761C121.761 279.576 121.662 279.137 121.465 278.75C121.272 278.364 120.995 278.059 120.636 277.835C120.28 277.612 119.859 277.5 119.374 277.5C118.84 277.5 118.378 277.633 117.988 277.898C117.602 278.159 117.304 278.5 117.096 278.921C116.888 279.341 116.783 279.792 116.783 280.273V281.046C116.783 281.705 116.897 282.263 117.124 282.722C117.355 283.176 117.675 283.523 118.084 283.762C118.494 283.996 118.969 284.114 119.511 284.114C119.863 284.114 120.181 284.065 120.465 283.966C120.753 283.864 121.001 283.712 121.209 283.512C121.418 283.307 121.579 283.053 121.692 282.75L122.988 283.114C122.852 283.553 122.622 283.94 122.3 284.273C121.978 284.603 121.581 284.86 121.107 285.046C120.634 285.228 120.102 285.318 119.511 285.318ZM125.164 285.137V276.409H126.459V277.728H126.55C126.709 277.296 126.997 276.945 127.414 276.676C127.831 276.407 128.3 276.273 128.823 276.273C128.922 276.273 129.045 276.275 129.192 276.279C129.34 276.282 129.452 276.288 129.528 276.296V277.659C129.482 277.648 129.378 277.631 129.215 277.608C129.056 277.582 128.888 277.568 128.709 277.568C128.285 277.568 127.906 277.657 127.573 277.835C127.244 278.01 126.982 278.252 126.789 278.563C126.6 278.87 126.505 279.22 126.505 279.614V285.137H125.164ZM138.185 285.341C137.632 285.341 137.13 285.237 136.68 285.029C136.229 284.817 135.871 284.512 135.606 284.114C135.341 283.712 135.208 283.228 135.208 282.659C135.208 282.159 135.307 281.754 135.504 281.443C135.7 281.129 135.964 280.883 136.293 280.705C136.623 280.527 136.986 280.394 137.384 280.307C137.786 280.216 138.189 280.144 138.594 280.091C139.125 280.023 139.555 279.972 139.884 279.938C140.218 279.9 140.46 279.837 140.611 279.75C140.767 279.663 140.844 279.512 140.844 279.296V279.25C140.844 278.69 140.691 278.254 140.384 277.943C140.081 277.633 139.621 277.478 139.004 277.478C138.363 277.478 137.861 277.618 137.498 277.898C137.134 278.178 136.879 278.478 136.731 278.796L135.458 278.341C135.685 277.811 135.988 277.398 136.367 277.103C136.75 276.803 137.166 276.595 137.617 276.478C138.072 276.356 138.519 276.296 138.958 276.296C139.238 276.296 139.56 276.33 139.924 276.398C140.291 276.462 140.646 276.597 140.986 276.801C141.331 277.006 141.617 277.315 141.844 277.728C142.072 278.14 142.185 278.693 142.185 279.387V285.137H140.844V283.955H140.776C140.685 284.144 140.534 284.347 140.322 284.563C140.11 284.779 139.827 284.962 139.475 285.114C139.123 285.265 138.693 285.341 138.185 285.341ZM138.39 284.137C138.92 284.137 139.367 284.032 139.731 283.824C140.098 283.616 140.375 283.347 140.56 283.017C140.75 282.688 140.844 282.341 140.844 281.978V280.75C140.788 280.818 140.663 280.881 140.469 280.938C140.28 280.991 140.06 281.038 139.81 281.08C139.564 281.118 139.324 281.152 139.089 281.182C138.858 281.209 138.67 281.231 138.526 281.25C138.178 281.296 137.852 281.37 137.549 281.472C137.25 281.57 137.007 281.72 136.822 281.921C136.64 282.118 136.549 282.387 136.549 282.728C136.549 283.193 136.721 283.546 137.066 283.784C137.415 284.019 137.856 284.137 138.39 284.137ZM145.974 279.887V285.137H144.633V276.409H145.928V277.773H146.042C146.246 277.33 146.557 276.974 146.974 276.705C147.39 276.432 147.928 276.296 148.587 276.296C149.178 276.296 149.695 276.417 150.138 276.659C150.582 276.898 150.926 277.262 151.173 277.75C151.419 278.235 151.542 278.849 151.542 279.591V285.137H150.201V279.682C150.201 278.996 150.023 278.462 149.667 278.08C149.311 277.693 148.822 277.5 148.201 277.5C147.773 277.5 147.39 277.593 147.053 277.779C146.72 277.964 146.457 278.235 146.263 278.591C146.07 278.947 145.974 279.379 145.974 279.887ZM156.56 285.341C156.007 285.341 155.505 285.237 155.055 285.029C154.604 284.817 154.246 284.512 153.981 284.114C153.716 283.712 153.583 283.228 153.583 282.659C153.583 282.159 153.682 281.754 153.879 281.443C154.075 281.129 154.339 280.883 154.668 280.705C154.998 280.527 155.361 280.394 155.759 280.307C156.161 280.216 156.564 280.144 156.969 280.091C157.5 280.023 157.93 279.972 158.259 279.938C158.593 279.9 158.835 279.837 158.986 279.75C159.142 279.663 159.219 279.512 159.219 279.296V279.25C159.219 278.69 159.066 278.254 158.759 277.943C158.456 277.633 157.996 277.478 157.379 277.478C156.738 277.478 156.236 277.618 155.873 277.898C155.509 278.178 155.254 278.478 155.106 278.796L153.833 278.341C154.06 277.811 154.363 277.398 154.742 277.103C155.125 276.803 155.541 276.595 155.992 276.478C156.447 276.356 156.894 276.296 157.333 276.296C157.613 276.296 157.935 276.33 158.299 276.398C158.666 276.462 159.021 276.597 159.361 276.801C159.706 277.006 159.992 277.315 160.219 277.728C160.447 278.14 160.56 278.693 160.56 279.387V285.137H159.219V283.955H159.151C159.06 284.144 158.909 284.347 158.697 284.563C158.485 284.779 158.202 284.962 157.85 285.114C157.498 285.265 157.068 285.341 156.56 285.341ZM156.765 284.137C157.295 284.137 157.742 284.032 158.106 283.824C158.473 283.616 158.75 283.347 158.935 283.017C159.125 282.688 159.219 282.341 159.219 281.978V280.75C159.163 280.818 159.038 280.881 158.844 280.938C158.655 280.991 158.435 281.038 158.185 281.08C157.939 281.118 157.699 281.152 157.464 281.182C157.233 281.209 157.045 281.231 156.901 281.25C156.553 281.296 156.227 281.37 155.924 281.472C155.625 281.57 155.382 281.72 155.197 281.921C155.015 282.118 154.924 282.387 154.924 282.728C154.924 283.193 155.096 283.546 155.441 283.784C155.79 284.019 156.231 284.137 156.765 284.137ZM164.349 273.5V285.137H163.008V273.5H164.349ZM167.668 288.409C167.441 288.409 167.238 288.39 167.06 288.353C166.882 288.318 166.759 288.284 166.691 288.25L167.032 287.068C167.358 287.152 167.646 287.182 167.896 287.159C168.146 287.137 168.367 287.025 168.56 286.824C168.757 286.627 168.937 286.307 169.1 285.864L169.35 285.182L166.123 276.409H167.577L169.986 283.364H170.077L172.486 276.409H173.941L170.236 286.409C170.07 286.86 169.863 287.233 169.617 287.529C169.371 287.828 169.085 288.049 168.759 288.193C168.437 288.337 168.074 288.409 167.668 288.409ZM179.506 276.409V277.546H174.984V276.409H179.506ZM176.302 274.318H177.643V282.637C177.643 283.015 177.698 283.299 177.808 283.489C177.921 283.674 178.065 283.799 178.239 283.864C178.417 283.924 178.605 283.955 178.802 283.955C178.95 283.955 179.071 283.947 179.165 283.932C179.26 283.913 179.336 283.898 179.393 283.887L179.665 285.091C179.575 285.125 179.448 285.159 179.285 285.193C179.122 285.231 178.915 285.25 178.665 285.25C178.287 285.25 177.915 285.169 177.552 285.006C177.192 284.843 176.893 284.595 176.654 284.262C176.419 283.928 176.302 283.508 176.302 283V274.318ZM181.523 285.137V276.409H182.864V285.137H181.523ZM182.205 274.955C181.944 274.955 181.718 274.866 181.529 274.688C181.343 274.51 181.251 274.296 181.251 274.046C181.251 273.796 181.343 273.582 181.529 273.404C181.718 273.226 181.944 273.137 182.205 273.137C182.467 273.137 182.69 273.226 182.876 273.404C183.065 273.582 183.16 273.796 183.16 274.046C183.16 274.296 183.065 274.51 182.876 274.688C182.69 274.866 182.467 274.955 182.205 274.955ZM188.866 285.318C188.048 285.318 187.343 285.125 186.752 284.739C186.161 284.353 185.707 283.82 185.388 283.142C185.07 282.464 184.911 281.69 184.911 280.818C184.911 279.932 185.074 279.15 185.4 278.472C185.729 277.79 186.188 277.258 186.775 276.875C187.366 276.489 188.055 276.296 188.843 276.296C189.457 276.296 190.01 276.409 190.502 276.637C190.995 276.864 191.398 277.182 191.712 277.591C192.027 278 192.222 278.478 192.298 279.023H190.957C190.854 278.625 190.627 278.273 190.275 277.966C189.926 277.656 189.457 277.5 188.866 277.5C188.343 277.5 187.885 277.637 187.491 277.909C187.101 278.178 186.796 278.559 186.576 279.051C186.36 279.54 186.252 280.114 186.252 280.773C186.252 281.447 186.358 282.034 186.57 282.534C186.786 283.034 187.089 283.423 187.479 283.699C187.873 283.976 188.335 284.114 188.866 284.114C189.214 284.114 189.531 284.053 189.815 283.932C190.099 283.811 190.339 283.637 190.536 283.409C190.733 283.182 190.873 282.909 190.957 282.591H192.298C192.222 283.106 192.034 283.57 191.735 283.983C191.44 284.392 191.048 284.718 190.559 284.96C190.074 285.199 189.51 285.318 188.866 285.318ZM200.44 278.364L199.235 278.705C199.159 278.504 199.048 278.309 198.9 278.12C198.756 277.926 198.559 277.767 198.309 277.642C198.059 277.517 197.739 277.455 197.349 277.455C196.815 277.455 196.37 277.578 196.013 277.824C195.661 278.067 195.485 278.375 195.485 278.75C195.485 279.084 195.606 279.347 195.849 279.54C196.091 279.733 196.47 279.894 196.985 280.023L198.281 280.341C199.061 280.531 199.642 280.82 200.025 281.21C200.407 281.597 200.599 282.095 200.599 282.705C200.599 283.205 200.455 283.652 200.167 284.046C199.883 284.44 199.485 284.75 198.974 284.978C198.462 285.205 197.868 285.318 197.19 285.318C196.299 285.318 195.563 285.125 194.979 284.739C194.396 284.353 194.027 283.788 193.871 283.046L195.144 282.728C195.265 283.197 195.495 283.549 195.832 283.784C196.173 284.019 196.618 284.137 197.167 284.137C197.792 284.137 198.288 284.004 198.656 283.739C199.027 283.47 199.212 283.148 199.212 282.773C199.212 282.47 199.106 282.216 198.894 282.012C198.682 281.803 198.356 281.648 197.917 281.546L196.462 281.205C195.663 281.015 195.076 280.722 194.701 280.324C194.33 279.923 194.144 279.421 194.144 278.818C194.144 278.326 194.282 277.89 194.559 277.512C194.839 277.133 195.22 276.835 195.701 276.62C196.186 276.404 196.735 276.296 197.349 276.296C198.212 276.296 198.89 276.485 199.383 276.864C199.879 277.243 200.231 277.743 200.44 278.364Z" fill="#060815"/>
<path d="M54.7729 309H53.3638C53.2804 308.595 53.1346 308.239 52.9263 307.932C52.7217 307.625 52.4717 307.367 52.1763 307.159C51.8846 306.947 51.5607 306.788 51.2047 306.682C50.8486 306.576 50.4774 306.523 50.091 306.523C49.3865 306.523 48.7482 306.701 48.1763 307.057C47.6081 307.413 47.1554 307.937 46.8183 308.631C46.485 309.324 46.3183 310.174 46.3183 311.182C46.3183 312.189 46.485 313.04 46.8183 313.733C47.1554 314.426 47.6081 314.951 48.1763 315.307C48.7482 315.663 49.3865 315.841 50.091 315.841C50.4774 315.841 50.8486 315.788 51.2047 315.682C51.5607 315.576 51.8846 315.418 52.1763 315.21C52.4717 314.998 52.7217 314.739 52.9263 314.432C53.1346 314.121 53.2804 313.765 53.3638 313.364H54.7729C54.6668 313.958 54.4736 314.49 54.1933 314.96C53.913 315.43 53.5645 315.829 53.1479 316.159C52.7312 316.485 52.2634 316.733 51.7444 316.903C51.2293 317.074 50.6782 317.159 50.091 317.159C49.0986 317.159 48.216 316.917 47.4433 316.432C46.6706 315.947 46.0626 315.257 45.6194 314.364C45.1763 313.47 44.9547 312.409 44.9547 311.182C44.9547 309.954 45.1763 308.894 45.6194 308C46.0626 307.106 46.6706 306.417 47.4433 305.932C48.216 305.447 49.0986 305.204 50.091 305.204C50.6782 305.204 51.2293 305.29 51.7444 305.46C52.2634 305.631 52.7312 305.881 53.1479 306.21C53.5645 306.536 53.913 306.934 54.1933 307.403C54.4736 307.869 54.6668 308.401 54.7729 309ZM60.4135 317.182C59.6256 317.182 58.9343 316.994 58.3396 316.619C57.7487 316.244 57.2866 315.72 56.9532 315.045C56.6237 314.371 56.4589 313.583 56.4589 312.682C56.4589 311.773 56.6237 310.979 56.9532 310.301C57.2866 309.623 57.7487 309.096 58.3396 308.721C58.9343 308.346 59.6256 308.159 60.4135 308.159C61.2014 308.159 61.8907 308.346 62.4817 308.721C63.0764 309.096 63.5385 309.623 63.868 310.301C64.2014 310.979 64.368 311.773 64.368 312.682C64.368 313.583 64.2014 314.371 63.868 315.045C63.5385 315.72 63.0764 316.244 62.4817 316.619C61.8907 316.994 61.2014 317.182 60.4135 317.182ZM60.4135 315.977C61.012 315.977 61.5044 315.824 61.8907 315.517C62.2771 315.21 62.5631 314.807 62.7487 314.307C62.9343 313.807 63.0271 313.265 63.0271 312.682C63.0271 312.098 62.9343 311.555 62.7487 311.051C62.5631 310.547 62.2771 310.14 61.8907 309.829C61.5044 309.519 61.012 309.364 60.4135 309.364C59.815 309.364 59.3226 309.519 58.9362 309.829C58.5498 310.14 58.2639 310.547 58.0782 311.051C57.8926 311.555 57.7998 312.098 57.7998 312.682C57.7998 313.265 57.8926 313.807 58.0782 314.307C58.2639 314.807 58.5498 315.21 58.9362 315.517C59.3226 315.824 59.815 315.977 60.4135 315.977ZM69.7103 317.182C68.9831 317.182 68.341 316.998 67.7842 316.631C67.2274 316.259 66.7918 315.737 66.4774 315.062C66.163 314.384 66.0058 313.583 66.0058 312.659C66.0058 311.742 66.163 310.947 66.4774 310.273C66.7918 309.598 67.2293 309.078 67.7899 308.71C68.3505 308.343 68.9982 308.159 69.7331 308.159C70.3013 308.159 70.7501 308.254 71.0797 308.443C71.413 308.629 71.6668 308.841 71.841 309.079C72.0191 309.314 72.1573 309.507 72.2558 309.659H72.3694V305.364H73.7104V317H72.4149V315.659H72.2558C72.1573 315.818 72.0172 316.019 71.8353 316.261C71.6535 316.5 71.3941 316.714 71.0569 316.903C70.7198 317.089 70.271 317.182 69.7103 317.182ZM69.8922 315.977C70.43 315.977 70.8846 315.837 71.2558 315.557C71.627 315.273 71.9092 314.881 72.1024 314.381C72.2956 313.877 72.3922 313.295 72.3922 312.636C72.3922 311.985 72.2975 311.415 72.1081 310.926C71.9187 310.434 71.6384 310.051 71.2672 309.778C70.896 309.502 70.4376 309.364 69.8922 309.364C69.324 309.364 68.8505 309.509 68.4717 309.801C68.0967 310.089 67.8145 310.481 67.6251 310.977C67.4395 311.47 67.3467 312.023 67.3467 312.636C67.3467 313.257 67.4414 313.822 67.6308 314.329C67.824 314.833 68.1081 315.235 68.4831 315.534C68.8619 315.829 69.3316 315.977 69.8922 315.977ZM76.3524 317V308.273H77.6933V317H76.3524ZM77.0342 306.818C76.7728 306.818 76.5475 306.729 76.3581 306.551C76.1725 306.373 76.0797 306.159 76.0797 305.909C76.0797 305.659 76.1725 305.445 76.3581 305.267C76.5475 305.089 76.7728 305 77.0342 305C77.2956 305 77.5191 305.089 77.7047 305.267C77.8941 305.445 77.9888 305.659 77.9888 305.909C77.9888 306.159 77.8941 306.373 77.7047 306.551C77.5191 306.729 77.2956 306.818 77.0342 306.818ZM81.4902 311.75V317H80.1493V308.273H81.4447V309.636H81.5584C81.7629 309.193 82.0735 308.837 82.4902 308.568C82.9068 308.295 83.4447 308.159 84.1038 308.159C84.6947 308.159 85.2118 308.28 85.655 308.523C86.0981 308.761 86.4428 309.125 86.689 309.614C86.9353 310.098 87.0584 310.712 87.0584 311.454V317H85.7175V311.545C85.7175 310.86 85.5394 310.326 85.1834 309.943C84.8273 309.557 84.3387 309.364 83.7175 309.364C83.2894 309.364 82.9068 309.456 82.5697 309.642C82.2364 309.828 81.9731 310.098 81.78 310.454C81.5868 310.81 81.4902 311.242 81.4902 311.75ZM93.0314 320.454C92.3836 320.454 91.8268 320.371 91.3609 320.204C90.895 320.042 90.5068 319.826 90.1961 319.557C89.8893 319.292 89.645 319.007 89.4632 318.704L90.5314 317.954C90.6526 318.114 90.806 318.295 90.9916 318.5C91.1772 318.708 91.431 318.888 91.753 319.04C92.0787 319.195 92.5049 319.273 93.0314 319.273C93.7359 319.273 94.3174 319.102 94.7757 318.761C95.234 318.42 95.4632 317.886 95.4632 317.159V315.386H95.3496C95.2511 315.545 95.1109 315.742 94.9291 315.977C94.7511 316.208 94.4935 316.415 94.1564 316.596C93.823 316.774 93.3723 316.864 92.8041 316.864C92.0996 316.864 91.467 316.697 90.9064 316.364C90.3496 316.03 89.9083 315.545 89.5825 314.909C89.2605 314.273 89.0996 313.5 89.0996 312.591C89.0996 311.697 89.2568 310.918 89.5711 310.256C89.8855 309.589 90.323 309.074 90.8836 308.71C91.4443 308.343 92.092 308.159 92.8268 308.159C93.395 308.159 93.8458 308.254 94.1791 308.443C94.5162 308.629 94.7738 308.841 94.9518 309.079C95.1336 309.314 95.2738 309.507 95.3723 309.659H95.5086V308.273H96.8041V317.25C96.8041 318 96.6336 318.61 96.2927 319.079C95.9556 319.553 95.5011 319.899 94.9291 320.119C94.3609 320.343 93.7283 320.454 93.0314 320.454ZM92.9859 315.659C93.5238 315.659 93.9783 315.536 94.3496 315.29C94.7208 315.043 95.003 314.689 95.1961 314.227C95.3893 313.765 95.4859 313.212 95.4859 312.568C95.4859 311.939 95.3912 311.384 95.2018 310.903C95.0124 310.422 94.7321 310.045 94.3609 309.773C93.9897 309.5 93.5314 309.364 92.9859 309.364C92.4177 309.364 91.9443 309.507 91.5655 309.795C91.1905 310.083 90.9083 310.47 90.7189 310.954C90.5333 311.439 90.4405 311.977 90.4405 312.568C90.4405 313.174 90.5352 313.71 90.7246 314.176C90.9177 314.638 91.2018 315.002 91.5768 315.267C91.9556 315.528 92.4253 315.659 92.9859 315.659ZM107.054 317.182C106.327 317.182 105.685 316.998 105.128 316.631C104.571 316.259 104.136 315.737 103.821 315.062C103.507 314.384 103.35 313.583 103.35 312.659C103.35 311.742 103.507 310.947 103.821 310.273C104.136 309.598 104.573 309.078 105.134 308.71C105.694 308.343 106.342 308.159 107.077 308.159C107.645 308.159 108.094 308.254 108.423 308.443C108.757 308.629 109.011 308.841 109.185 309.079C109.363 309.314 109.501 309.507 109.6 309.659H109.713V305.364H111.054V317H109.759V315.659H109.6C109.501 315.818 109.361 316.019 109.179 316.261C108.997 316.5 108.738 316.714 108.401 316.903C108.064 317.089 107.615 317.182 107.054 317.182ZM107.236 315.977C107.774 315.977 108.228 315.837 108.6 315.557C108.971 315.273 109.253 314.881 109.446 314.381C109.639 313.877 109.736 313.295 109.736 312.636C109.736 311.985 109.641 311.415 109.452 310.926C109.262 310.434 108.982 310.051 108.611 309.778C108.24 309.502 107.781 309.364 107.236 309.364C106.668 309.364 106.194 309.509 105.815 309.801C105.44 310.089 105.158 310.481 104.969 310.977C104.783 311.47 104.69 312.023 104.69 312.636C104.69 313.257 104.785 313.822 104.975 314.329C105.168 314.833 105.452 315.235 105.827 315.534C106.206 315.829 106.675 315.977 107.236 315.977ZM117.355 317.182C116.514 317.182 115.789 316.996 115.179 316.625C114.573 316.25 114.105 315.727 113.776 315.057C113.45 314.382 113.287 313.598 113.287 312.704C113.287 311.81 113.45 311.023 113.776 310.341C114.105 309.655 114.564 309.121 115.151 308.739C115.742 308.352 116.431 308.159 117.219 308.159C117.673 308.159 118.122 308.235 118.565 308.386C119.009 308.538 119.412 308.784 119.776 309.125C120.139 309.462 120.429 309.909 120.645 310.466C120.861 311.023 120.969 311.708 120.969 312.523V313.091H114.242V311.932H119.605C119.605 311.439 119.507 311 119.31 310.614C119.117 310.227 118.84 309.922 118.48 309.699C118.124 309.475 117.704 309.364 117.219 309.364C116.685 309.364 116.223 309.496 115.833 309.761C115.446 310.023 115.149 310.364 114.94 310.784C114.732 311.204 114.628 311.655 114.628 312.136V312.909C114.628 313.568 114.742 314.127 114.969 314.585C115.2 315.04 115.52 315.386 115.929 315.625C116.338 315.86 116.814 315.977 117.355 315.977C117.708 315.977 118.026 315.928 118.31 315.829C118.598 315.727 118.846 315.576 119.054 315.375C119.262 315.17 119.423 314.917 119.537 314.614L120.833 314.977C120.696 315.417 120.467 315.803 120.145 316.136C119.823 316.466 119.425 316.723 118.952 316.909C118.478 317.091 117.946 317.182 117.355 317.182ZM129.879 308.273L126.652 317H125.288L122.061 308.273H123.516L125.925 315.227H126.016L128.425 308.273H129.879ZM134.996 317.182C134.155 317.182 133.43 316.996 132.82 316.625C132.214 316.25 131.746 315.727 131.416 315.057C131.091 314.382 130.928 313.598 130.928 312.704C130.928 311.81 131.091 311.023 131.416 310.341C131.746 309.655 132.204 309.121 132.791 308.739C133.382 308.352 134.072 308.159 134.859 308.159C135.314 308.159 135.763 308.235 136.206 308.386C136.649 308.538 137.053 308.784 137.416 309.125C137.78 309.462 138.07 309.909 138.286 310.466C138.502 311.023 138.609 311.708 138.609 312.523V313.091H131.882V311.932H137.246C137.246 311.439 137.147 311 136.95 310.614C136.757 310.227 136.481 309.922 136.121 309.699C135.765 309.475 135.344 309.364 134.859 309.364C134.325 309.364 133.863 309.496 133.473 309.761C133.087 310.023 132.789 310.364 132.581 310.784C132.373 311.204 132.269 311.655 132.269 312.136V312.909C132.269 313.568 132.382 314.127 132.609 314.585C132.841 315.04 133.161 315.386 133.57 315.625C133.979 315.86 134.454 315.977 134.996 315.977C135.348 315.977 135.666 315.928 135.95 315.829C136.238 315.727 136.486 315.576 136.695 315.375C136.903 315.17 137.064 314.917 137.178 314.614L138.473 314.977C138.337 315.417 138.108 315.803 137.786 316.136C137.464 316.466 137.066 316.723 136.592 316.909C136.119 317.091 135.587 317.182 134.996 317.182ZM141.99 305.364V317H140.649V305.364H141.99ZM147.992 317.182C147.204 317.182 146.512 316.994 145.918 316.619C145.327 316.244 144.865 315.72 144.531 315.045C144.202 314.371 144.037 313.583 144.037 312.682C144.037 311.773 144.202 310.979 144.531 310.301C144.865 309.623 145.327 309.096 145.918 308.721C146.512 308.346 147.204 308.159 147.992 308.159C148.779 308.159 149.469 308.346 150.06 308.721C150.654 309.096 151.117 309.623 151.446 310.301C151.779 310.979 151.946 311.773 151.946 312.682C151.946 313.583 151.779 314.371 151.446 315.045C151.117 315.72 150.654 316.244 150.06 316.619C149.469 316.994 148.779 317.182 147.992 317.182ZM147.992 315.977C148.59 315.977 149.083 315.824 149.469 315.517C149.855 315.21 150.141 314.807 150.327 314.307C150.512 313.807 150.605 313.265 150.605 312.682C150.605 312.098 150.512 311.555 150.327 311.051C150.141 310.547 149.855 310.14 149.469 309.829C149.083 309.519 148.59 309.364 147.992 309.364C147.393 309.364 146.901 309.519 146.514 309.829C146.128 310.14 145.842 310.547 145.656 311.051C145.471 311.555 145.378 312.098 145.378 312.682C145.378 313.265 145.471 313.807 145.656 314.307C145.842 314.807 146.128 315.21 146.514 315.517C146.901 315.824 147.393 315.977 147.992 315.977ZM153.993 320.273V308.273H155.288V309.659H155.448C155.546 309.507 155.682 309.314 155.857 309.079C156.035 308.841 156.288 308.629 156.618 308.443C156.951 308.254 157.402 308.159 157.97 308.159C158.705 308.159 159.353 308.343 159.913 308.71C160.474 309.078 160.912 309.598 161.226 310.273C161.54 310.947 161.698 311.742 161.698 312.659C161.698 313.583 161.54 314.384 161.226 315.062C160.912 315.737 160.476 316.259 159.919 316.631C159.362 316.998 158.72 317.182 157.993 317.182C157.432 317.182 156.984 317.089 156.646 316.903C156.309 316.714 156.05 316.5 155.868 316.261C155.686 316.019 155.546 315.818 155.448 315.659H155.334V320.273H153.993ZM155.311 312.636C155.311 313.295 155.408 313.877 155.601 314.381C155.794 314.881 156.076 315.273 156.448 315.557C156.819 315.837 157.273 315.977 157.811 315.977C158.372 315.977 158.84 315.829 159.215 315.534C159.593 315.235 159.877 314.833 160.067 314.329C160.26 313.822 160.357 313.257 160.357 312.636C160.357 312.023 160.262 311.47 160.073 310.977C159.887 310.481 159.605 310.089 159.226 309.801C158.851 309.509 158.379 309.364 157.811 309.364C157.266 309.364 156.807 309.502 156.436 309.778C156.065 310.051 155.785 310.434 155.595 310.926C155.406 311.415 155.311 311.985 155.311 312.636ZM163.743 317V308.273H165.038V309.636H165.152C165.334 309.17 165.627 308.809 166.033 308.551C166.438 308.29 166.925 308.159 167.493 308.159C168.069 308.159 168.548 308.29 168.931 308.551C169.317 308.809 169.618 309.17 169.834 309.636H169.925C170.148 309.185 170.484 308.828 170.931 308.562C171.377 308.293 171.913 308.159 172.538 308.159C173.319 308.159 173.957 308.403 174.453 308.892C174.949 309.377 175.198 310.132 175.198 311.159V317H173.857V311.159C173.857 310.515 173.681 310.055 173.328 309.778C172.976 309.502 172.561 309.364 172.084 309.364C171.47 309.364 170.995 309.549 170.658 309.92C170.321 310.288 170.152 310.754 170.152 311.318V317H168.788V311.023C168.788 310.526 168.627 310.127 168.306 309.824C167.984 309.517 167.569 309.364 167.061 309.364C166.713 309.364 166.387 309.456 166.084 309.642C165.785 309.828 165.542 310.085 165.357 310.415C165.175 310.74 165.084 311.117 165.084 311.545V317H163.743ZM181.308 317.182C180.467 317.182 179.742 316.996 179.132 316.625C178.526 316.25 178.058 315.727 177.729 315.057C177.403 314.382 177.24 313.598 177.24 312.704C177.24 311.81 177.403 311.023 177.729 310.341C178.058 309.655 178.517 309.121 179.104 308.739C179.695 308.352 180.384 308.159 181.172 308.159C181.627 308.159 182.075 308.235 182.519 308.386C182.962 308.538 183.365 308.784 183.729 309.125C184.092 309.462 184.382 309.909 184.598 310.466C184.814 311.023 184.922 311.708 184.922 312.523V313.091H178.195V311.932H183.558C183.558 311.439 183.46 311 183.263 310.614C183.07 310.227 182.793 309.922 182.433 309.699C182.077 309.475 181.657 309.364 181.172 309.364C180.638 309.364 180.176 309.496 179.786 309.761C179.399 310.023 179.102 310.364 178.894 310.784C178.685 311.204 178.581 311.655 178.581 312.136V312.909C178.581 313.568 178.695 314.127 178.922 314.585C179.153 315.04 179.473 315.386 179.882 315.625C180.291 315.86 180.767 315.977 181.308 315.977C181.661 315.977 181.979 315.928 182.263 315.829C182.551 315.727 182.799 315.576 183.007 315.375C183.216 315.17 183.377 314.917 183.49 314.614L184.786 314.977C184.649 315.417 184.42 315.803 184.098 316.136C183.776 316.466 183.378 316.723 182.905 316.909C182.431 317.091 181.899 317.182 181.308 317.182ZM188.303 311.75V317H186.962V308.273H188.257V309.636H188.371C188.575 309.193 188.886 308.837 189.303 308.568C189.719 308.295 190.257 308.159 190.916 308.159C191.507 308.159 192.024 308.28 192.467 308.523C192.911 308.761 193.255 309.125 193.502 309.614C193.748 310.098 193.871 310.712 193.871 311.454V317H192.53V311.545C192.53 310.86 192.352 310.326 191.996 309.943C191.64 309.557 191.151 309.364 190.53 309.364C190.102 309.364 189.719 309.456 189.382 309.642C189.049 309.828 188.786 310.098 188.592 310.454C188.399 310.81 188.303 311.242 188.303 311.75ZM200.117 308.273V309.409H195.594V308.273H200.117ZM196.912 306.182H198.253V314.5C198.253 314.879 198.308 315.163 198.418 315.352C198.531 315.538 198.675 315.663 198.85 315.727C199.028 315.788 199.215 315.818 199.412 315.818C199.56 315.818 199.681 315.81 199.776 315.795C199.87 315.776 199.946 315.761 200.003 315.75L200.276 316.954C200.185 316.989 200.058 317.023 199.895 317.057C199.732 317.095 199.526 317.114 199.276 317.114C198.897 317.114 198.526 317.032 198.162 316.869C197.802 316.706 197.503 316.458 197.264 316.125C197.029 315.792 196.912 315.371 196.912 314.864V306.182Z" fill="#060815"/>
<g filter="url(#filter0_d_36_1680)">
<circle cx="132.187" cy="166.541" r="89.5592" fill="white"/>
<circle cx="132.187" cy="166.541" r="69.5592" stroke="black" stroke-width="40"/>
</g>
<mask id="mask1_36_1680" style="mask-type:alpha" maskUnits="userSpaceOnUse" x="42" y="76" width="180" height="181">
<circle cx="132.184" cy="166.541" r="69.5592" fill="white" stroke="black" stroke-width="40"/>
</mask>
<g mask="url(#mask1_36_1680)">
<path d="M134.933 113.11V75.0934C79.5145 75.0934 49.3881 110.793 41.1415 130.915C22.9328 199.396 51.6973 224.103 74.2933 235.813L97.4801 200.277C91.0477 193.845 86.3215 183.989 85.1669 178.216C81.0625 133.581 110.688 113.11 134.933 113.11Z" fill="#3F53D8"/>
</g>
<mask id="mask2_36_1680" style="mask-type:alpha" maskUnits="userSpaceOnUse" x="42" y="76" width="180" height="181">
<circle cx="132.142" cy="166.492" r="69.5592" transform="rotate(-143.881 132.142 166.492)" fill="white" stroke="black" stroke-width="40"/>
</mask>
<g mask="url(#mask2_36_1680)">
<path d="M86.9221 189.813L50.6328 220.164C89.7894 266.188 136.697 267.456 159.234 260.088C228.972 226.824 221.699 209.489 227.041 187.223L183.683 177.358C179.447 188.422 178.552 189.976 174.35 194.678C139.639 233.526 100.607 211.406 86.9221 189.813Z" fill="#FDCA49"/>
<path d="M219.901 205.148L176.905 195.003C181.53 185.381 190.479 165.594 176.905 137.09L210.661 112.788C234.942 152.209 226.678 192.596 219.901 205.148Z" fill="#DCE8E3"/>
</g>
<circle cx="135.28" cy="166.046" r="52.9357" fill="white"/>
<path d="M115.87 155.725C116.914 155.732 117.93 155.917 118.917 156.279C119.911 156.634 120.806 157.217 121.601 158.026C122.397 158.829 123.029 159.905 123.498 161.254C123.967 162.604 124.201 164.273 124.201 166.261C124.208 168.136 124.009 169.813 123.604 171.29C123.207 172.76 122.635 174.003 121.889 175.019C121.143 176.034 120.245 176.808 119.194 177.341C118.143 177.874 116.96 178.14 115.646 178.14C114.268 178.14 113.047 177.87 111.981 177.33C110.923 176.791 110.067 176.052 109.414 175.114C108.761 174.177 108.359 173.104 108.21 171.897H112.099C112.297 172.764 112.702 173.452 113.313 173.964C113.931 174.468 114.709 174.72 115.646 174.72C117.159 174.72 118.324 174.063 119.141 172.749C119.957 171.435 120.366 169.61 120.366 167.273H120.217C119.869 167.898 119.418 168.438 118.864 168.893C118.31 169.34 117.681 169.685 116.978 169.926C116.282 170.168 115.543 170.288 114.762 170.288C113.484 170.288 112.333 169.983 111.31 169.372C110.295 168.761 109.489 167.923 108.892 166.858C108.302 165.793 108.004 164.575 107.997 163.204C107.997 161.783 108.324 160.509 108.977 159.379C109.638 158.243 110.557 157.348 111.736 156.695C112.915 156.034 114.293 155.711 115.87 155.725ZM115.881 158.921C115.114 158.921 114.421 159.109 113.803 159.486C113.192 159.855 112.709 160.359 112.354 160.999C112.006 161.631 111.832 162.337 111.832 163.119C111.839 163.893 112.013 164.596 112.354 165.228C112.702 165.86 113.175 166.361 113.771 166.73C114.375 167.099 115.064 167.284 115.838 167.284C116.413 167.284 116.949 167.174 117.447 166.954C117.944 166.734 118.377 166.428 118.746 166.038C119.123 165.64 119.414 165.189 119.62 164.685C119.833 164.18 119.936 163.648 119.929 163.087C119.929 162.341 119.751 161.652 119.396 161.02C119.048 160.388 118.569 159.88 117.958 159.497C117.354 159.113 116.662 158.921 115.881 158.921ZM127.748 177.842V174.987L135.323 167.561C136.047 166.83 136.651 166.18 137.134 165.612C137.617 165.043 137.979 164.493 138.221 163.96C138.462 163.428 138.583 162.859 138.583 162.256C138.583 161.567 138.427 160.977 138.114 160.487C137.802 159.99 137.372 159.607 136.825 159.337C136.278 159.067 135.657 158.932 134.961 158.932C134.244 158.932 133.615 159.081 133.075 159.379C132.535 159.671 132.116 160.086 131.818 160.626C131.527 161.166 131.381 161.808 131.381 162.554H127.621C127.621 161.169 127.937 159.965 128.569 158.943C129.201 157.92 130.071 157.128 131.179 156.567C132.294 156.006 133.572 155.725 135.014 155.725C136.477 155.725 137.763 155.999 138.871 156.546C139.979 157.092 140.838 157.842 141.449 158.793C142.067 159.745 142.376 160.832 142.376 162.053C142.376 162.87 142.219 163.673 141.907 164.461C141.594 165.249 141.044 166.123 140.256 167.082C139.474 168.041 138.377 169.202 136.964 170.565L133.203 174.39V174.539H142.706V177.842H127.748ZM158.047 173.751V172.6C158.047 171.755 158.224 170.977 158.579 170.267C158.942 169.557 159.467 168.985 160.156 168.552C160.845 168.119 161.68 167.902 162.66 167.902C163.668 167.902 164.513 168.119 165.195 168.552C165.877 168.978 166.392 169.546 166.74 170.256C167.095 170.967 167.273 171.748 167.273 172.6V173.751C167.273 174.596 167.095 175.374 166.74 176.084C166.385 176.794 165.863 177.366 165.174 177.799C164.492 178.232 163.654 178.449 162.66 178.449C161.665 178.449 160.824 178.232 160.135 177.799C159.446 177.366 158.924 176.794 158.569 176.084C158.221 175.374 158.047 174.596 158.047 173.751ZM160.827 172.6V173.751C160.827 174.312 160.962 174.827 161.232 175.296C161.502 175.764 161.978 175.999 162.66 175.999C163.349 175.999 163.821 175.768 164.077 175.306C164.339 174.837 164.471 174.319 164.471 173.751V172.6C164.471 172.032 164.347 171.514 164.098 171.045C163.849 170.569 163.37 170.331 162.66 170.331C161.992 170.331 161.52 170.569 161.243 171.045C160.966 171.514 160.827 172.032 160.827 172.6ZM146.957 161.265V160.114C146.957 159.262 147.138 158.481 147.5 157.771C147.862 157.06 148.388 156.492 149.077 156.066C149.766 155.633 150.6 155.416 151.58 155.416C152.582 155.416 153.423 155.633 154.105 156.066C154.794 156.492 155.312 157.06 155.66 157.771C156.008 158.481 156.182 159.262 156.182 160.114V161.265C156.182 162.117 156.005 162.898 155.65 163.609C155.302 164.312 154.783 164.876 154.094 165.303C153.405 165.729 152.567 165.942 151.58 165.942C150.579 165.942 149.734 165.729 149.045 165.303C148.363 164.876 147.844 164.308 147.489 163.598C147.134 162.888 146.957 162.11 146.957 161.265ZM149.758 160.114V161.265C149.758 161.833 149.89 162.352 150.153 162.82C150.422 163.282 150.898 163.513 151.58 163.513C152.262 163.513 152.731 163.282 152.986 162.82C153.249 162.352 153.381 161.833 153.381 161.265V160.114C153.381 159.546 153.256 159.028 153.008 158.559C152.759 158.083 152.283 157.845 151.58 157.845C150.905 157.845 150.433 158.083 150.163 158.559C149.893 159.035 149.758 159.553 149.758 160.114ZM148.171 177.842L163.171 156.023H165.834L150.834 177.842H148.171Z" fill="#060815"/>
<rect x="24.0436" y="274.098" width="10.5343" height="10.5343" rx="5.26717" fill="#0076E3"/>
<rect x="23.0822" y="305.836" width="10.5343" height="10.5343" rx="5.26717" fill="#FFB039"/>
</g>
<defs>
<filter id="filter0_d_36_1680" x="-2.37207" y="30.9823" width="279.118" height="279.118" filterUnits="userSpaceOnUse" color-interpolation-filters="sRGB">
<feFlood flood-opacity="0" result="BackgroundImageFix"/>
<feColorMatrix in="SourceAlpha" type="matrix" values="0 0 0 0 0 0 0 0 0 0 0 0 0 0 0 0 0 0 127 0" result="hardAlpha"/>
<feOffset dx="5" dy="4"/>
<feGaussianBlur stdDeviation="25"/>
<feComposite in2="hardAlpha" operator="out"/>
<feColorMatrix type="matrix" values="0 0 0 0 0 0 0 0 0 0 0 0 0 0 0 0 0 0 0.08 0"/>
<feBlend mode="normal" in2="BackgroundImageFix" result="effect1_dropShadow_36_1680"/>
<feBlend mode="normal" in="SourceGraphic" in2="effect1_dropShadow_36_1680" result="shape"/>
</filter>
</defs>
</svg>
