<svg width="67" height="67" viewBox="0 0 67 67" fill="none" xmlns="http://www.w3.org/2000/svg">
<rect width="67" height="67" fill="#FACACE"/>
<path d="M40.7918 46.625V43.7083C40.7918 42.1612 40.1772 40.6775 39.0833 39.5835C37.9893 38.4896 36.5056 37.875 34.9585 37.875H23.2918C21.7447 37.875 20.261 38.4896 19.167 39.5835C18.0731 40.6775 17.4585 42.1612 17.4585 43.7083V46.625" stroke="black" stroke-width="2" stroke-linecap="round" stroke-linejoin="round"/>
<path d="M29.1248 32.0417C32.3465 32.0417 34.9582 29.43 34.9582 26.2083C34.9582 22.9867 32.3465 20.375 29.1248 20.375C25.9032 20.375 23.2915 22.9867 23.2915 26.2083C23.2915 29.43 25.9032 32.0417 29.1248 32.0417Z" stroke="black" stroke-width="2" stroke-linecap="round" stroke-linejoin="round"/>
<path d="M49.5415 46.625V43.7083C49.5405 42.4158 49.1104 41.1603 48.3185 40.1388C47.5266 39.1173 46.4179 38.3877 45.1665 38.0646" stroke="black" stroke-width="2" stroke-linecap="round" stroke-linejoin="round"/>
<path d="M39.3335 20.5646C40.5883 20.8858 41.7004 21.6156 42.4946 22.6388C43.2888 23.662 43.7199 24.9204 43.7199 26.2156C43.7199 27.5109 43.2888 28.7693 42.4946 29.7925C41.7004 30.8156 40.5883 31.5454 39.3335 31.8667" stroke="black" stroke-width="2" stroke-linecap="round" stroke-linejoin="round"/>
</svg>
