<svg width="67" height="47" viewBox="0 0 67 47" fill="none" xmlns="http://www.w3.org/2000/svg">
<circle cx="43.7661" cy="23.2339" r="23.2339" fill="#FFF1CD"/>
<path d="M41.0654 30.7656C39.8337 33.6785 37.9071 36.2453 35.4542 38.2416C33.0013 40.238 30.0967 41.6031 26.9943 42.2175C23.8919 42.832 20.6863 42.6771 17.6576 41.7664C14.6289 40.8557 11.8694 39.217 9.62036 36.9935C7.37131 34.77 5.70118 32.0294 4.75599 29.0113C3.8108 25.9932 3.61932 22.7895 4.19831 19.6804C4.77729 16.5712 6.10909 13.6512 8.07729 11.1756C10.0455 8.70003 12.5902 6.74429 15.4888 5.47937" stroke="black" stroke-width="2" stroke-linecap="round" stroke-linejoin="round"/>
<path d="M42.595 23.2339C42.595 20.6913 42.0942 18.1736 41.1211 15.8245C40.1481 13.4755 38.722 11.3411 36.9241 9.54318C35.1262 7.7453 32.9918 6.31914 30.6427 5.34613C28.2937 4.37312 25.776 3.87231 23.2334 3.87231V23.2339H42.595Z" stroke="black" stroke-width="2" stroke-linecap="round" stroke-linejoin="round"/>
</svg>
