<svg width="79" height="79" viewBox="0 0 79 79" fill="none" xmlns="http://www.w3.org/2000/svg">
<circle cx="39.5" cy="39.5" r="39.5" fill="#64E8F0"/>
<path d="M38.9997 56.6667C48.2044 56.6667 55.6663 49.2048 55.6663 40C55.6663 30.7953 48.2044 23.3334 38.9997 23.3334C29.7949 23.3334 22.333 30.7953 22.333 40C22.333 49.2048 29.7949 56.6667 38.9997 56.6667Z" stroke="black" stroke-width="2" stroke-linecap="round" stroke-linejoin="round"/>
<path d="M22.333 40H55.6663" stroke="black" stroke-width="2" stroke-linecap="round" stroke-linejoin="round"/>
<path d="M38.9997 23.3334C43.1685 27.8973 45.5376 33.8201 45.6663 40C45.5376 46.18 43.1685 52.1028 38.9997 56.6667C34.8309 52.1028 32.4618 46.18 32.333 40C32.4618 33.8201 34.8309 27.8973 38.9997 23.3334V23.3334Z" stroke="black" stroke-width="2" stroke-linecap="round" stroke-linejoin="round"/>
</svg>
