<svg width="79" height="79" viewBox="0 0 79 79" fill="none" xmlns="http://www.w3.org/2000/svg">
<circle cx="39.5" cy="39.5" r="39.5" fill="#00D9A5"/>
<path d="M50 25C48.6739 25 47.4021 25.5268 46.4645 26.4645C45.5268 27.4021 45 28.6739 45 30V50C45 51.3261 45.5268 52.5979 46.4645 53.5355C47.4021 54.4732 48.6739 55 50 55C51.3261 55 52.5979 54.4732 53.5355 53.5355C54.4732 52.5979 55 51.3261 55 50C55 48.6739 54.4732 47.4021 53.5355 46.4645C52.5979 45.5268 51.3261 45 50 45H30C28.6739 45 27.4021 45.5268 26.4645 46.4645C25.5268 47.4021 25 48.6739 25 50C25 51.3261 25.5268 52.5979 26.4645 53.5355C27.4021 54.4732 28.6739 55 30 55C31.3261 55 32.5979 54.4732 33.5355 53.5355C34.4732 52.5979 35 51.3261 35 50V30C35 28.6739 34.4732 27.4021 33.5355 26.4645C32.5979 25.5268 31.3261 25 30 25C28.6739 25 27.4021 25.5268 26.4645 26.4645C25.5268 27.4021 25 28.6739 25 30C25 31.3261 25.5268 32.5979 26.4645 33.5355C27.4021 34.4732 28.6739 35 30 35H50C51.3261 35 52.5979 34.4732 53.5355 33.5355C54.4732 32.5979 55 31.3261 55 30C55 28.6739 54.4732 27.4021 53.5355 26.4645C52.5979 25.5268 51.3261 25 50 25Z" stroke="black" stroke-width="2" stroke-linecap="round" stroke-linejoin="round"/>
</svg>
