<svg width="52" height="45" viewBox="0 0 52 45" fill="none" xmlns="http://www.w3.org/2000/svg">
<circle cx="29.5" cy="22.5" r="22.5" fill="#FFEFDD"/>
<path d="M21.25 34.25V31.75C21.25 30.4239 20.7232 29.1521 19.7855 28.2145C18.8479 27.2768 17.5761 26.75 16.25 26.75H6.25C4.92392 26.75 3.65215 27.2768 2.71447 28.2145C1.77678 29.1521 1.25 30.4239 1.25 31.75V34.25" stroke="#060815" stroke-width="1.5" stroke-linecap="round" stroke-linejoin="round"/>
<path d="M11.25 21.75C14.0114 21.75 16.25 19.5114 16.25 16.75C16.25 13.9886 14.0114 11.75 11.25 11.75C8.48858 11.75 6.25 13.9886 6.25 16.75C6.25 19.5114 8.48858 21.75 11.25 21.75Z" stroke="#060815" stroke-width="1.5" stroke-linecap="round" stroke-linejoin="round"/>
<path d="M28.75 34.25V31.75C28.7492 30.6421 28.3804 29.5659 27.7017 28.6904C27.023 27.8148 26.0727 27.1894 25 26.9125" stroke="#060815" stroke-width="1.5" stroke-linecap="round" stroke-linejoin="round"/>
<path d="M20 11.9125C21.0755 12.1879 22.0288 12.8134 22.7095 13.6904C23.3903 14.5674 23.7598 15.646 23.7598 16.7562C23.7598 17.8664 23.3903 18.9451 22.7095 19.8221C22.0288 20.6991 21.0755 21.3246 20 21.6" stroke="#060815" stroke-width="1.5" stroke-linecap="round" stroke-linejoin="round"/>
</svg>
