<svg width="54" height="45" viewBox="0 0 54 45" fill="none" xmlns="http://www.w3.org/2000/svg">
<circle cx="31.5" cy="22.5" r="22.5" fill="#F7F9B3"/>
<path d="M25 10.5H5C3.61929 10.5 2.5 11.6193 2.5 13V18C2.5 19.3807 3.61929 20.5 5 20.5H25C26.3807 20.5 27.5 19.3807 27.5 18V13C27.5 11.6193 26.3807 10.5 25 10.5Z" stroke="#19191D" stroke-width="1.5" stroke-linecap="round" stroke-linejoin="round"/>
<path d="M25 25.5H5C3.61929 25.5 2.5 26.6193 2.5 28V33C2.5 34.3807 3.61929 35.5 5 35.5H25C26.3807 35.5 27.5 34.3807 27.5 33V28C27.5 26.6193 26.3807 25.5 25 25.5Z" stroke="#19191D" stroke-width="1.5" stroke-linecap="round" stroke-linejoin="round"/>
<path d="M7.5 15.5H7.51418" stroke="#19191D" stroke-width="1.5" stroke-linecap="round" stroke-linejoin="round"/>
<path d="M7.5 30.5H7.51418" stroke="#19191D" stroke-width="1.5" stroke-linecap="round" stroke-linejoin="round"/>
</svg>
